# Blender v2.92.0 OBJ File: 'uts hedeh1.blend'
# www.blender.org
mtllib uts hedeh3b.mtl
o BezierCircle
v -1.000000 0.000000 0.000000
v -0.990868 0.000000 -0.135661
v -0.964268 0.000000 -0.265784
v -0.921393 0.000000 -0.389178
v -0.863435 0.000000 -0.504648
v -0.791589 0.000000 -0.611002
v -0.707047 0.000000 -0.707047
v -0.611002 0.000000 -0.791589
v -0.504648 0.000000 -0.863435
v -0.389178 0.000000 -0.921393
v -0.265784 0.000000 -0.964268
v -0.135661 0.000000 -0.990868
v 0.000000 0.000000 -1.000000
v 0.135661 0.000000 -0.990868
v 0.265784 0.000000 -0.964268
v 0.389178 0.000000 -0.921393
v 0.504648 0.000000 -0.863435
v 0.611002 0.000000 -0.791589
v 0.707047 0.000000 -0.707047
v 0.791589 0.000000 -0.611002
v 0.863435 0.000000 -0.504648
v 0.921393 0.000000 -0.389178
v 0.964268 0.000000 -0.265784
v 0.990868 0.000000 -0.135661
v 1.000000 0.000000 0.000000
v 0.990868 -0.000000 0.135661
v 0.964268 -0.000000 0.265784
v 0.921393 -0.000000 0.389178
v 0.863435 -0.000000 0.504648
v 0.791589 -0.000000 0.611002
v 0.707047 -0.000000 0.707047
v 0.611002 -0.000000 0.791589
v 0.504648 -0.000000 0.863435
v 0.389178 -0.000000 0.921393
v 0.265784 -0.000000 0.964268
v 0.135661 -0.000000 0.990868
v 0.000000 -0.000000 1.000000
v -0.135661 -0.000000 0.990868
v -0.265784 -0.000000 0.964268
v -0.389178 -0.000000 0.921393
v -0.504648 -0.000000 0.863435
v -0.611002 -0.000000 0.791589
v -0.707047 -0.000000 0.707047
v -0.791589 -0.000000 0.611002
v -0.863435 -0.000000 0.504648
v -0.921393 -0.000000 0.389178
v -0.964268 -0.000000 0.265784
v -0.990868 -0.000000 0.135661
l 1 2
l 2 3
l 3 4
l 4 5
l 5 6
l 6 7
l 7 8
l 8 9
l 9 10
l 10 11
l 11 12
l 12 13
l 13 14
l 14 15
l 15 16
l 16 17
l 17 18
l 18 19
l 19 20
l 20 21
l 21 22
l 22 23
l 23 24
l 24 25
l 25 26
l 26 27
l 27 28
l 28 29
l 29 30
l 30 31
l 31 32
l 32 33
l 33 34
l 34 35
l 35 36
l 36 37
l 37 38
l 38 39
l 39 40
l 40 41
l 41 42
l 42 43
l 43 44
l 44 45
l 45 46
l 46 47
l 48 1
l 47 48
o Cube_Cube.004
v 2.662214 0.175014 2.197662
v 1.892583 1.843027 1.987761
v 1.899209 0.147806 -3.989581
v 1.902678 1.998668 -3.977626
v 3.104722 0.175014 2.197662
v 3.892583 1.843027 1.987761
v 3.899209 0.147806 -3.989581
v 3.882677 1.998668 -3.977626
v 1.892583 0.008668 1.690039
v 1.892583 2.008668 1.690039
v 3.892583 0.008668 1.690039
v 3.892583 2.008668 1.690039
v 1.892583 2.008668 0.270134
v 1.892583 2.008668 -1.149771
v 1.892583 2.008668 -2.569676
v 3.892583 0.008668 0.270134
v 3.892583 0.008668 -1.149771
v 3.892583 0.008668 -2.569676
v 1.892583 0.008668 -2.569676
v 1.892583 0.008668 -1.149771
v 1.892583 0.008668 0.270134
v 3.892583 2.008668 -2.569676
v 3.892583 2.008668 -1.149771
v 3.892583 2.008668 0.270134
v 1.892583 1.013487 2.197662
v 1.909115 1.318726 -3.977626
v 3.889114 1.318726 -3.977626
v 3.892583 1.013487 2.197662
v 3.892583 1.169587 1.690039
v 1.892583 1.169587 1.690039
v 3.892583 1.169587 -2.569676
v 3.892583 1.169587 -1.149771
v 3.892583 1.169587 0.270134
v 1.892583 1.169587 0.270134
v 1.892583 1.169587 -1.149771
v 1.892583 1.169587 -2.569676
v 2.006377 2.113939 -2.272593
v 1.981828 2.093939 -3.602366
v 3.803339 2.093939 -3.602366
v 3.803339 2.093939 1.423252
v 3.803339 2.093939 1.686692
v 1.981828 2.093939 1.686692
v 1.981828 2.093939 1.423252
v 3.778790 2.113939 0.093480
v 2.006377 2.113939 0.093480
v 2.006377 2.113939 -1.089557
v 3.778790 2.113939 -2.272593
v 3.778790 2.113939 -1.089557
v 1.912603 1.184356 -2.602097
v 1.912713 1.997754 -2.602095
v 1.912546 1.997754 -3.956253
v 1.919089 1.317053 -3.956251
v 3.872583 1.174418 1.722915
v 3.872583 1.969034 1.722915
v 3.872583 1.839550 1.955648
v 3.872583 1.040689 2.157786
v 3.872583 1.180587 0.303010
v 3.872583 1.997668 0.303010
v 3.872583 1.997668 1.657164
v 3.872583 1.180587 1.657164
v 1.912583 1.040689 2.157786
v 1.912583 1.839550 1.955648
v 1.912583 1.969034 1.722915
v 1.912583 1.174418 1.722915
v 3.879091 1.316880 -3.957160
v 3.872548 1.997581 -3.957162
v 3.872715 1.997582 -2.603004
v 3.872604 1.184184 -2.603006
v 3.872583 1.180587 -2.536800
v 3.872583 1.997668 -2.536800
v 3.872583 1.997668 -1.182646
v 3.872583 1.180587 -1.182646
v 3.872583 1.180587 -1.116895
v 3.872583 1.997668 -1.116895
v 3.872583 1.997668 0.237259
v 3.872583 1.180587 0.237259
v 1.912583 1.180587 1.657164
v 1.912583 1.997668 1.657164
v 1.912583 1.997668 0.303010
v 1.912583 1.180587 0.303010
v 1.912583 1.180587 0.237259
v 1.912583 1.997668 0.237259
v 1.912583 1.997668 -1.116895
v 1.912583 1.180587 -1.116895
v 1.912583 1.180587 -1.182646
v 1.912583 1.997668 -1.182646
v 1.912583 1.997668 -2.536800
v 1.912583 1.180587 -2.536800
v 1.892583 2.008668 -3.989581
v 3.892583 2.008668 -3.989581
v 1.912881 1.295053 -4.010501
v 3.885536 1.295053 -4.010501
v 3.879091 1.316880 -3.957160
v 3.872548 1.997581 -3.957162
v 3.872715 1.997582 -2.603004
v 3.872604 1.184184 -2.603006
v 3.863435 1.042194 2.178401
v 3.863435 1.813645 1.983199
v 1.921731 1.813645 1.983199
v 1.921731 1.042194 2.178401
v 1.912881 1.249452 -4.010501
v 3.885536 1.249452 -4.010501
v 3.104722 0.365727 2.197662
v 3.892583 1.096641 1.690039
v 1.892583 1.096641 1.690039
v 3.892583 1.096641 -2.569676
v 3.892583 1.096641 -1.149771
v 3.892583 1.096641 0.270134
v 1.892583 1.096641 0.270134
v 1.892583 1.096641 -1.149771
v 1.892583 1.096641 -2.569676
v 2.662214 0.365727 2.197662
v 1.899209 1.308726 -3.989581
v 3.899209 1.308726 -3.989581
v 1.899209 1.235780 -3.989581
v 3.899209 1.235780 -3.989581
v 1.981828 2.093939 0.166848
v 1.981828 2.093939 -1.089557
v 1.981828 2.093939 -2.345962
v 3.803339 2.093939 -2.345962
v 3.803339 2.093939 -1.089557
v 3.803339 2.093939 0.166848
v 3.711647 0.585633 -3.989581
v 3.826652 0.585633 -3.989581
v 3.711647 0.803228 -3.989581
v 3.826652 0.803228 -3.989581
v 1.940350 0.563698 -3.989581
v 2.062358 0.563698 -3.989581
v 1.940350 0.785600 -3.989581
v 2.062358 0.785600 -3.989581
v 3.711647 0.803228 -4.002921
v 3.711647 0.585633 -4.002921
v 3.826652 0.585633 -4.002921
v 3.826652 0.803228 -4.002921
v 1.940350 0.785600 -4.002921
v 1.940350 0.563698 -4.002921
v 2.062358 0.563698 -4.002921
v 2.062358 0.785600 -4.002921
v 1.911262 0.201819 2.197662
v 2.036435 0.201819 2.197662
v 2.036435 0.859652 2.197662
v 1.911262 0.859652 2.197662
v 3.741567 0.202004 2.197662
v 3.874277 0.202004 2.197662
v 3.874277 0.859467 2.197662
v 3.741567 0.859467 2.197662
v 2.036435 0.859652 2.205547
v 2.036435 0.201819 2.205547
v 1.911262 0.201819 2.205547
v 1.911262 0.859652 2.205547
v 3.874277 0.859467 2.205547
v 3.874277 0.202004 2.205547
v 3.741567 0.202004 2.205547
v 3.741567 0.859467 2.205547
v 3.892583 0.950949 2.197662
v 3.892583 0.018209 2.197662
v 1.892583 0.018209 2.197662
v 1.892583 0.950949 2.197662
v 3.892583 0.950949 2.197662
v 3.892583 0.018209 2.197662
v 1.892583 0.018209 2.197662
v 1.892583 0.950949 2.197662
v 3.104722 0.365727 2.176559
v 3.104722 0.175014 2.176559
v 2.662214 0.175014 2.176559
v 2.662214 0.365727 2.176559
vt 0.625000 0.131226
vt 0.625000 0.071839
vt 0.625000 0.131226
vt 0.625000 0.618774
vt 0.625000 0.678161
vt 0.625000 0.678161
vt 0.625000 0.071839
vt 0.625000 0.012452
vt 0.625000 0.012452
vt 0.625000 0.000000
vt 0.625000 0.559387
vt 0.625000 0.618774
vt 0.520115 0.131226
vt 0.510997 0.190613
vt 0.510997 0.131226
vt 0.520115 0.071839
vt 0.510997 0.071839
vt 0.520115 0.012452
vt 0.510997 0.012452
vt 0.520115 0.618774
vt 0.510997 0.678161
vt 0.510997 0.618774
vt 0.520115 0.559387
vt 0.510997 0.559387
vt 0.510997 0.500000
vt 0.520115 0.000000
vt 0.510997 0.000000
vt 0.520115 0.678161
vt 0.510997 0.737548
vt 0.520115 0.750000
vt 0.510997 1.000000
vt 0.510997 0.750000
vt 0.518406 0.251709
vt 0.512706 0.498291
vt 0.512706 0.251709
vt 0.520115 0.190613
vt 0.510997 0.250000
vt 0.875000 0.737548
vt 0.625000 0.750000
vt 0.625000 0.737548
vt 0.875000 0.678161
vt 0.875000 0.500000
vt 0.625000 0.500000
vt 0.871631 0.562855
vt 0.628369 0.618774
vt 0.628369 0.562855
vt 0.871631 0.618774
vt 0.628369 0.674693
vt 0.625000 0.750000
vt 0.625000 1.000000
vt 0.625000 1.000000
vt 0.625000 0.737548
vt 0.625000 0.250000
vt 0.625000 0.500000
vt 0.625000 0.190613
vt 0.625000 0.190613
vt 0.625000 0.559387
vt 0.625000 0.250000
vt 0.521586 0.191988
vt 0.623413 0.248625
vt 0.623567 0.191988
vt 0.520115 0.250000
vt 0.521742 0.248625
vt 0.520115 0.737548
vt 0.622318 0.738915
vt 0.522091 0.738415
vt 0.522151 0.749116
vt 0.622226 0.748598
vt 0.521490 0.679536
vt 0.623625 0.679536
vt 0.623625 0.736173
vt 0.521490 0.736173
vt 0.625000 0.000000
vt 0.522151 0.000884
vt 0.622318 0.011085
vt 0.622226 0.001402
vt 0.522091 0.011585
vt 0.520115 0.500000
vt 0.623413 0.501375
vt 0.521742 0.501375
vt 0.623567 0.558012
vt 0.521586 0.558012
vt 0.521490 0.560762
vt 0.623625 0.617399
vt 0.623625 0.560762
vt 0.521490 0.617399
vt 0.521490 0.620149
vt 0.623625 0.620149
vt 0.521490 0.676786
vt 0.623625 0.676786
vt 0.521490 0.013827
vt 0.623625 0.070464
vt 0.623625 0.013827
vt 0.521490 0.070464
vt 0.521490 0.073214
vt 0.623625 0.129851
vt 0.623625 0.073214
vt 0.521490 0.129851
vt 0.521490 0.132601
vt 0.623625 0.132601
vt 0.623625 0.189238
vt 0.521490 0.189238
vt 0.623501 0.251250
vt 0.623502 0.498750
vt 0.521613 0.498750
vt 0.521613 0.251250
vt 0.623413 0.501375
vt 0.521742 0.501375
vt 0.623567 0.558012
vt 0.521586 0.558012
vt 0.523787 0.753644
vt 0.621328 0.753644
vt 0.523787 0.996356
vt 0.621328 0.996356
vt 0.520115 1.000000
vt 0.375000 0.250000
vt 0.375000 0.190613
vt 0.375000 0.500000
vt 0.375000 0.737548
vt 0.375000 0.750000
vt 0.510997 1.000000
vt 0.510997 0.750000
vt 0.510997 0.750000
vt 0.375000 0.678161
vt 0.375000 0.012452
vt 0.375000 0.000000
vt 0.375000 0.559387
vt 0.375000 0.618774
vt 0.375000 0.071839
vt 0.375000 0.131226
vt 0.518406 0.498291
vt 0.871631 0.674693
vt 0.875000 0.618774
vt 0.875000 0.559387
vt 0.375000 1.000000
vt 0.510997 0.750000
vt 0.375000 0.750000
vt 0.375000 1.000000
vt 0.510997 0.750000
vt 0.375000 0.750000
vt 0.375000 0.750000
vt 0.510997 1.000000
vt 0.510997 1.000000
vt 0.375000 0.750000
vt 0.510997 1.000000
vt 0.510997 0.750000
vt 0.375000 1.000000
vt 0.510997 0.750000
vt 0.375000 1.000000
vt 0.510997 1.000000
vt 0.510997 0.750000
vt 0.375000 0.750000
vt 0.375000 1.000000
vt 0.375000 1.000000
vt 0.510997 1.000000
vt 0.375000 0.750000
vt 0.375000 1.000000
vt 0.375000 1.000000
vt 0.510997 1.000000
vt 0.375000 0.750000
vt 0.875000 0.750000
vt 0.375000 0.500000
vt 0.510997 0.250000
vt 0.375000 0.250000
vt 0.375000 0.500000
vt 0.510997 0.250000
vt 0.375000 0.250000
vt 0.510997 0.250000
vt 0.375000 0.500000
vt 0.375000 0.250000
vt 0.510997 0.250000
vt 0.375000 0.500000
vt 0.375000 0.250000
vt 0.510997 0.500000
vt 0.510997 0.500000
vt 0.510997 0.500000
vt 0.510997 0.500000
vt 0.125000 0.750000
vt 0.125000 0.737548
vt 0.125000 0.678161
vt 0.125000 0.500000
vt 0.125000 0.559387
vt 0.125000 0.618774
vn -0.6908 0.7230 0.0000
vn 0.6908 0.7230 0.0000
vn -1.0000 0.0000 0.0000
vn 1.0000 0.0000 0.0000
vn 1.0000 0.0000 0.0047
vn 0.0000 0.0000 1.0000
vn 0.0000 0.0000 -1.0000
vn -1.0000 0.0000 -0.0047
vn 0.0000 1.0000 0.0000
vn 0.0000 0.7682 0.6402
vn 0.6326 0.6768 0.3766
vn 0.0000 0.9766 -0.2151
vn -0.8509 0.0000 -0.5254
vn -0.4765 -0.8792 0.0001
vn -0.8590 -0.0081 0.5119
vn -0.4990 0.8627 0.0821
vn 0.8543 0.0000 0.5197
vn 0.6820 -0.6391 -0.3556
vn 0.8479 -0.1301 -0.5140
vn 0.5811 0.7779 0.2392
vn 0.4819 -0.8762 0.0000
vn 0.8543 0.0000 -0.5197
vn 0.4819 0.8762 0.0000
vn -0.8479 -0.1301 -0.5140
vn -0.6820 -0.6391 -0.3556
vn -0.8543 0.0000 0.5197
vn -0.5811 0.7779 0.2392
vn 0.8506 0.0082 0.5258
vn 0.4841 -0.8750 -0.0001
vn 0.8590 -0.0001 -0.5120
vn 0.4885 0.8682 0.0874
vn -0.8543 0.0000 -0.5197
vn -0.4819 -0.8762 0.0000
vn -0.4819 0.8762 0.0000
vn 0.0000 -0.7670 -0.6416
vn 0.7670 0.0073 -0.6416
vn -0.7670 -0.0073 -0.6416
vn 0.0000 0.7670 -0.6416
vn -0.3706 0.2278 0.9004
vn 0.0000 -0.1535 0.9882
vn 0.3706 0.2278 0.9004
vn 0.0000 0.5572 0.8304
vn 0.0000 -1.0000 0.0000
vn 0.0000 0.8371 -0.5471
vn -0.8371 0.0000 -0.5471
vn 0.8371 0.0000 -0.5471
vn 0.0000 -0.8371 -0.5471
vn -0.6316 0.7753 0.0000
vn 0.6316 0.7753 0.0000
vn 0.0000 0.9648 -0.2630
vn 0.0000 0.9648 0.2630
vn -0.6326 0.6768 0.3766
vn -0.8495 0.0001 -0.5275
vn -0.4797 -0.8774 0.0000
vn -0.8579 -0.0082 0.5138
vn -0.5022 0.8608 0.0820
vn 0.8494 0.0080 0.5277
vn 0.4872 -0.8733 0.0000
vn 0.8577 0.0000 -0.5141
vn 0.4918 0.8664 0.0872
vn 0.0000 -0.9998 0.0188
vn 0.0000 -0.9952 -0.0975
usemtl Material.001
s off
f 62/1/1 165/2/1 166/3/1
f 71/4/2 170/5/2 72/6/2
f 61/7/1 91/8/1 165/2/1
f 58/9/1 90/10/1 91/8/1
f 71/4/2 168/11/2 169/12/2
f 83/13/3 159/14/3 158/15/3
f 82/16/3 158/15/3 157/17/3
f 78/18/3 157/17/3 153/19/3
f 80/20/4 156/21/4 155/22/4
f 79/23/4 155/22/4 154/24/4
f 164/25/5 79/23/5 154/24/5
f 73/26/3 153/19/3 206/27/3
f 81/28/4 152/29/4 156/21/4
f 76/30/6 206/31/6 203/32/6
f 152/29/4 76/30/4 203/32/4
f 139/33/7 150/34/7 149/35/7
f 84/36/8 163/37/8 159/14/8
f 91/38/9 89/39/9 88/40/9
f 165/41/9 88/40/9 170/5/9
f 86/42/9 168/11/9 87/43/9
f 85/44/9 96/45/9 95/46/9
f 94/47/9 92/48/9 96/45/9
f 54/49/10 90/50/10 50/51/10
f 60/52/11 89/39/11 54/49/11
f 72/6/2 88/40/2 60/52/2
f 137/53/12 87/43/12 138/54/12
f 62/1/1 167/55/1 63/56/1
f 70/57/2 87/43/2 168/11/2
f 63/56/1 86/58/1 137/53/1
f 63/56/13 97/59/13 84/36/13
f 63/56/14 99/60/14 98/61/14
f 161/62/15 99/60/15 137/53/15
f 161/62/16 97/59/16 100/63/16
f 77/64/17 102/65/17 101/66/17
f 54/49/18 102/65/18 60/52/18
f 54/49/19 104/67/19 103/68/19
f 77/64/20 104/67/20 76/30/20
f 72/6/17 105/69/17 81/28/17
f 60/52/21 106/70/21 72/6/21
f 77/64/22 107/71/22 60/52/22
f 81/28/23 108/72/23 77/64/23
f 50/73/24 109/74/24 73/26/24
f 50/73/25 111/75/25 110/76/25
f 78/18/26 111/75/26 58/9/26
f 78/18/27 109/74/27 112/77/27
f 162/78/28 114/79/28 113/80/28
f 138/54/29 115/81/29 114/79/29
f 70/57/30 116/82/30 115/81/30
f 162/78/31 116/82/31 79/23/31
f 70/57/17 117/83/17 79/23/17
f 70/57/21 119/84/21 118/85/21
f 80/20/22 119/84/22 71/4/22
f 79/23/23 120/86/23 80/20/23
f 71/4/17 121/87/17 80/20/17
f 72/6/21 122/88/21 71/4/21
f 72/6/22 124/89/22 123/90/22
f 80/20/23 124/89/23 81/28/23
f 58/9/32 125/91/32 78/18/32
f 58/9/33 127/92/33 126/93/33
f 82/16/26 127/92/26 61/7/26
f 78/18/34 128/94/34 82/16/34
f 61/7/32 129/95/32 82/16/32
f 61/7/33 131/96/33 130/97/33
f 62/1/26 132/98/26 131/96/26
f 82/16/34 132/98/34 83/13/34
f 62/1/32 133/99/32 83/13/32
f 63/56/33 134/100/33 62/1/33
f 84/36/26 135/101/26 63/56/26
f 83/13/34 136/102/34 84/36/34
f 52/103/35 138/54/35 56/104/35
f 52/103/36 161/62/36 137/53/36
f 75/105/37 138/54/37 162/78/37
f 75/105/38 161/62/38 74/106/38
f 113/80/6 142/107/6 141/108/6
f 114/79/6 143/109/6 142/107/6
f 115/81/6 144/110/6 143/109/6
f 116/82/6 141/108/6 144/110/6
f 54/49/39 145/111/39 76/30/39
f 50/51/40 146/112/40 54/49/40
f 50/51/41 148/113/41 147/114/41
f 76/30/42 148/113/42 73/115/42
f 159/14/8 51/116/8 67/117/8
f 163/37/7 55/118/7 51/116/7
f 59/119/4 203/32/4 204/120/4
f 160/121/43 211/122/43 151/123/43
f 156/21/4 59/119/4 64/124/4
f 206/27/3 57/125/3 205/126/3
f 55/118/5 154/24/5 66/127/5
f 154/24/4 65/128/4 66/127/4
f 65/128/4 156/21/4 64/124/4
f 153/19/3 69/129/3 57/125/3
f 157/17/3 68/130/3 69/129/3
f 68/130/3 159/14/3 67/117/3
f 139/33/44 162/78/44 140/131/44
f 149/35/45 161/62/45 139/33/45
f 150/34/46 162/78/46 164/25/46
f 150/34/47 163/37/47 149/35/47
f 93/132/48 166/133/48 165/41/48
f 85/44/48 166/133/48 94/47/48
f 95/46/49 169/12/49 168/11/49
f 92/48/49 169/12/49 96/45/49
f 95/46/50 167/134/50 85/44/50
f 93/132/51 170/5/51 92/48/51
f 187/135/7 189/136/7 188/137/7
f 191/138/7 193/139/7 192/140/7
f 193/139/4 200/141/4 192/140/4
f 187/135/3 198/142/3 190/143/3
f 189/136/4 196/144/4 188/137/4
f 194/145/9 199/146/9 193/139/9
f 192/140/43 201/147/43 191/138/43
f 190/143/9 195/148/9 189/136/9
f 188/137/43 197/149/43 187/135/43
f 191/138/3 202/150/3 194/145/3
f 207/151/6 204/120/6 203/32/6
f 208/152/6 205/153/6 204/120/6
f 209/154/6 206/31/6 205/153/6
f 210/155/6 203/32/6 206/31/6
f 151/123/6 208/152/6 207/151/6
f 53/156/6 209/154/6 208/152/6
f 160/121/6 209/154/6 49/157/6
f 151/123/6 210/155/6 160/121/6
f 53/156/9 213/158/9 49/157/9
f 49/157/4 214/159/4 160/121/4
f 151/123/3 212/160/3 53/156/3
f 62/1/1 61/7/1 165/2/1
f 71/4/2 169/12/2 170/5/2
f 61/7/1 58/9/1 91/8/1
f 58/9/52 50/73/52 90/10/52
f 71/4/2 70/57/2 168/11/2
f 83/13/3 84/36/3 159/14/3
f 82/16/3 83/13/3 158/15/3
f 78/18/3 82/16/3 157/17/3
f 80/20/4 81/28/4 156/21/4
f 79/23/4 80/20/4 155/22/4
f 164/25/5 162/78/5 79/23/5
f 73/26/3 78/18/3 153/19/3
f 81/28/4 77/64/4 152/29/4
f 76/30/6 73/115/6 206/31/6
f 152/29/4 77/64/4 76/30/4
f 139/33/7 140/131/7 150/34/7
f 84/36/8 161/62/8 163/37/8
f 91/38/9 90/161/9 89/39/9
f 165/41/9 91/38/9 88/40/9
f 86/42/9 167/134/9 168/11/9
f 85/44/9 94/47/9 96/45/9
f 94/47/9 93/132/9 92/48/9
f 54/49/10 89/39/10 90/50/10
f 60/52/2 88/40/2 89/39/2
f 72/6/2 170/5/2 88/40/2
f 137/53/12 86/58/12 87/43/12
f 62/1/1 166/3/1 167/55/1
f 70/57/2 138/54/2 87/43/2
f 63/56/1 167/55/1 86/58/1
f 63/56/53 98/61/53 97/59/53
f 63/56/54 137/53/54 99/60/54
f 161/62/55 100/63/55 99/60/55
f 161/62/56 84/36/56 97/59/56
f 77/64/17 60/52/17 102/65/17
f 54/49/18 103/68/18 102/65/18
f 54/49/19 76/30/19 104/67/19
f 77/64/20 101/66/20 104/67/20
f 72/6/17 106/70/17 105/69/17
f 60/52/21 107/71/21 106/70/21
f 77/64/22 108/72/22 107/71/22
f 81/28/23 105/69/23 108/72/23
f 50/73/24 110/76/24 109/74/24
f 50/73/25 58/9/25 111/75/25
f 78/18/26 112/77/26 111/75/26
f 78/18/27 73/26/27 109/74/27
f 162/78/57 138/54/57 114/79/57
f 138/54/58 70/57/58 115/81/58
f 70/57/59 79/23/59 116/82/59
f 162/78/60 113/80/60 116/82/60
f 70/57/17 118/85/17 117/83/17
f 70/57/21 71/4/21 119/84/21
f 80/20/22 120/86/22 119/84/22
f 79/23/23 117/83/23 120/86/23
f 71/4/17 122/88/17 121/87/17
f 72/6/21 123/90/21 122/88/21
f 72/6/22 81/28/22 124/89/22
f 80/20/23 121/87/23 124/89/23
f 58/9/32 126/93/32 125/91/32
f 58/9/33 61/7/33 127/92/33
f 82/16/26 128/94/26 127/92/26
f 78/18/34 125/91/34 128/94/34
f 61/7/32 130/97/32 129/95/32
f 61/7/33 62/1/33 131/96/33
f 62/1/26 83/13/26 132/98/26
f 82/16/34 129/95/34 132/98/34
f 62/1/32 134/100/32 133/99/32
f 63/56/33 135/101/33 134/100/33
f 84/36/26 136/102/26 135/101/26
f 83/13/34 133/99/34 136/102/34
f 52/103/35 137/53/35 138/54/35
f 52/103/36 74/106/36 161/62/36
f 75/105/37 56/104/37 138/54/37
f 75/105/38 162/78/38 161/62/38
f 113/80/6 114/79/6 142/107/6
f 114/79/6 115/81/6 143/109/6
f 115/81/6 116/82/6 144/110/6
f 116/82/6 113/80/6 141/108/6
f 54/49/39 146/112/39 145/111/39
f 50/51/40 147/114/40 146/112/40
f 50/51/41 73/115/41 148/113/41
f 76/30/42 145/111/42 148/113/42
f 159/14/8 163/37/8 51/116/8
f 163/37/7 164/25/7 55/118/7
f 59/119/4 152/29/4 203/32/4
f 160/121/43 214/159/43 211/122/43
f 156/21/4 152/29/4 59/119/4
f 206/27/3 153/19/3 57/125/3
f 55/118/5 164/25/5 154/24/5
f 154/24/4 155/22/4 65/128/4
f 65/128/4 155/22/4 156/21/4
f 153/19/3 157/17/3 69/129/3
f 157/17/3 158/15/3 68/130/3
f 68/130/3 158/15/3 159/14/3
f 139/33/44 161/62/44 162/78/44
f 149/35/45 163/37/45 161/62/45
f 150/34/46 140/131/46 162/78/46
f 150/34/47 164/25/47 163/37/47
f 93/132/48 94/47/48 166/133/48
f 85/44/48 167/134/48 166/133/48
f 95/46/49 96/45/49 169/12/49
f 92/48/49 170/5/49 169/12/49
f 95/46/50 168/11/50 167/134/50
f 93/132/51 165/41/51 170/5/51
f 187/135/7 190/143/7 189/136/7
f 191/138/7 194/145/7 193/139/7
f 193/139/4 199/146/4 200/141/4
f 187/135/3 197/149/3 198/142/3
f 189/136/4 195/148/4 196/144/4
f 194/145/9 202/150/9 199/146/9
f 192/140/43 200/141/43 201/147/43
f 190/143/9 198/142/9 195/148/9
f 188/137/43 196/144/43 197/149/43
f 191/138/3 201/147/3 202/150/3
f 207/151/6 208/152/6 204/120/6
f 208/152/6 209/154/6 205/153/6
f 209/154/6 210/155/6 206/31/6
f 210/155/6 207/151/6 203/32/6
f 151/123/6 53/156/6 208/152/6
f 53/156/6 49/157/6 209/154/6
f 160/121/6 210/155/6 209/154/6
f 151/123/6 207/151/6 210/155/6
f 53/156/9 212/160/9 213/158/9
f 49/157/4 213/158/4 214/159/4
f 151/123/3 211/122/3 212/160/3
usemtl Material.003
f 172/162/6 173/163/6 171/164/6
f 176/165/6 177/166/6 175/167/6
f 179/168/7 181/169/7 180/170/7
f 183/171/7 185/172/7 184/173/7
f 176/165/4 186/174/4 178/175/4
f 177/166/3 184/173/3 175/167/3
f 172/162/4 182/176/4 174/177/4
f 173/163/3 180/170/3 171/164/3
f 178/175/9 183/171/9 177/166/9
f 175/167/43 185/172/43 176/165/43
f 174/177/9 179/168/9 173/163/9
f 171/164/43 181/169/43 172/162/43
f 195/148/6 197/149/6 196/144/6
f 199/146/6 201/147/6 200/141/6
f 172/162/6 174/177/6 173/163/6
f 176/165/6 178/175/6 177/166/6
f 179/168/7 182/176/7 181/169/7
f 183/171/7 186/174/7 185/172/7
f 176/165/4 185/172/4 186/174/4
f 177/166/3 183/171/3 184/173/3
f 172/162/4 181/169/4 182/176/4
f 173/163/3 179/168/3 180/170/3
f 178/175/9 186/174/9 183/171/9
f 175/167/43 184/173/43 185/172/43
f 174/177/9 182/176/9 179/168/9
f 171/164/43 180/170/43 181/169/43
f 195/148/6 198/142/6 197/149/6
f 199/146/6 202/150/6 201/147/6
usemtl Material.004
f 211/122/6 213/158/6 212/160/6
f 211/122/6 214/159/6 213/158/6
usemtl Material.005
f 59/119/61 205/178/61 57/179/61
f 64/124/43 57/179/43 69/180/43
f 51/181/62 66/127/62 67/182/62
f 66/127/43 68/183/43 67/182/43
f 65/128/43 69/180/43 68/183/43
f 59/119/61 204/120/61 205/178/61
f 64/124/43 59/119/43 57/179/43
f 51/181/62 55/118/62 66/127/62
f 66/127/43 65/128/43 68/183/43
f 65/128/43 64/124/43 69/180/43
