# Blender v2.92.0 OBJ File: 'uts hedeh1.blend'
# www.blender.org
mtllib uts hedeh3c.mtl
o BezierCircle
v -1.000000 0.000000 0.000000
v -0.990868 0.000000 -0.135661
v -0.964268 0.000000 -0.265784
v -0.921393 0.000000 -0.389178
v -0.863435 0.000000 -0.504648
v -0.791589 0.000000 -0.611002
v -0.707047 0.000000 -0.707047
v -0.611002 0.000000 -0.791589
v -0.504648 0.000000 -0.863435
v -0.389178 0.000000 -0.921393
v -0.265784 0.000000 -0.964268
v -0.135661 0.000000 -0.990868
v 0.000000 0.000000 -1.000000
v 0.135661 0.000000 -0.990868
v 0.265784 0.000000 -0.964268
v 0.389178 0.000000 -0.921393
v 0.504648 0.000000 -0.863435
v 0.611002 0.000000 -0.791589
v 0.707047 0.000000 -0.707047
v 0.791589 0.000000 -0.611002
v 0.863435 0.000000 -0.504648
v 0.921393 0.000000 -0.389178
v 0.964268 0.000000 -0.265784
v 0.990868 0.000000 -0.135661
v 1.000000 0.000000 0.000000
v 0.990868 -0.000000 0.135661
v 0.964268 -0.000000 0.265784
v 0.921393 -0.000000 0.389178
v 0.863435 -0.000000 0.504648
v 0.791589 -0.000000 0.611002
v 0.707047 -0.000000 0.707047
v 0.611002 -0.000000 0.791589
v 0.504648 -0.000000 0.863435
v 0.389178 -0.000000 0.921393
v 0.265784 -0.000000 0.964268
v 0.135661 -0.000000 0.990868
v 0.000000 -0.000000 1.000000
v -0.135661 -0.000000 0.990868
v -0.265784 -0.000000 0.964268
v -0.389178 -0.000000 0.921393
v -0.504648 -0.000000 0.863435
v -0.611002 -0.000000 0.791589
v -0.707047 -0.000000 0.707047
v -0.791589 -0.000000 0.611002
v -0.863435 -0.000000 0.504648
v -0.921393 -0.000000 0.389178
v -0.964268 -0.000000 0.265784
v -0.990868 -0.000000 0.135661
l 1 2
l 2 3
l 3 4
l 4 5
l 5 6
l 6 7
l 7 8
l 8 9
l 9 10
l 10 11
l 11 12
l 12 13
l 13 14
l 14 15
l 15 16
l 16 17
l 17 18
l 18 19
l 19 20
l 20 21
l 21 22
l 22 23
l 23 24
l 24 25
l 25 26
l 26 27
l 27 28
l 28 29
l 29 30
l 30 31
l 31 32
l 32 33
l 33 34
l 34 35
l 35 36
l 36 37
l 37 38
l 38 39
l 39 40
l 40 41
l 41 42
l 42 43
l 43 44
l 44 45
l 45 46
l 46 47
l 48 1
l 47 48
o Cube.001
v 1.902678 1.998668 -3.977626
v 3.882677 1.998668 -3.977626
v 1.909115 1.318726 -3.977626
v 3.889114 1.318726 -3.977626
v 1.912603 1.184356 -2.602097
v 1.912713 1.997754 -2.602095
v 1.912546 1.997754 -3.956253
v 1.919089 1.317053 -3.956251
v 3.872583 1.174418 1.722915
v 3.872583 1.969034 1.722915
v 3.872583 1.839550 1.955648
v 3.872583 1.040689 2.157786
v 3.872583 1.180587 0.303010
v 3.872583 1.997668 0.303010
v 3.872583 1.997668 1.657164
v 3.872583 1.180587 1.657164
v 1.912583 1.040689 2.157786
v 1.912583 1.839550 1.955648
v 1.912583 1.969034 1.722915
v 1.912583 1.174418 1.722915
v 3.872583 1.180587 -2.536800
v 3.872583 1.997668 -2.536800
v 3.872583 1.997668 -1.182646
v 3.872583 1.180587 -1.182646
v 3.872583 1.180587 -1.116895
v 3.872583 1.997668 -1.116895
v 3.872583 1.997668 0.237259
v 3.872583 1.180587 0.237259
v 1.912583 1.180587 1.657164
v 1.912583 1.997668 1.657164
v 1.912583 1.997668 0.303010
v 1.912583 1.180587 0.303010
v 1.912583 1.180587 0.237259
v 1.912583 1.997668 0.237259
v 1.912583 1.997668 -1.116895
v 1.912583 1.180587 -1.116895
v 1.912583 1.180587 -1.182646
v 1.912583 1.997668 -1.182646
v 1.912583 1.997668 -2.536800
v 1.912583 1.180587 -2.536800
v 3.879091 1.316880 -3.957160
v 3.872548 1.997581 -3.957162
v 3.872715 1.997582 -2.603004
v 3.872604 1.184184 -2.603006
v 3.863435 1.042194 2.178401
v 3.863435 1.813645 1.983199
v 1.921731 1.813645 1.983199
v 1.921731 1.042194 2.178401
vt 0.623567 0.191988
vt 0.521742 0.248625
vt 0.521586 0.191988
vt 0.521613 0.251250
vt 0.623502 0.498750
vt 0.521613 0.498750
vt 0.522091 0.738415
vt 0.622226 0.748598
vt 0.522151 0.749116
vt 0.621328 0.753644
vt 0.523787 0.996356
vt 0.523787 0.753644
vt 0.623625 0.679536
vt 0.521490 0.736173
vt 0.521490 0.679536
vt 0.622226 0.001402
vt 0.522091 0.011585
vt 0.522151 0.000884
vt 0.521742 0.501375
vt 0.623567 0.558012
vt 0.521586 0.558012
vt 0.623625 0.560762
vt 0.521490 0.617399
vt 0.521490 0.560762
vt 0.623625 0.620149
vt 0.521490 0.676786
vt 0.521490 0.620149
vt 0.623625 0.013827
vt 0.521490 0.070464
vt 0.521490 0.013827
vt 0.623625 0.073214
vt 0.521490 0.129851
vt 0.521490 0.073214
vt 0.521490 0.132601
vt 0.623625 0.189238
vt 0.521490 0.189238
vt 0.623413 0.248625
vt 0.623501 0.251250
vt 0.622318 0.738915
vt 0.621328 0.996356
vt 0.623625 0.736173
vt 0.622318 0.011085
vt 0.623413 0.501375
vt 0.623625 0.617399
vt 0.623625 0.676786
vt 0.623625 0.070464
vt 0.623625 0.129851
vt 0.623625 0.132601
vn -1.0000 0.0001 -0.0048
vn 0.0000 0.0000 -1.0000
vn 1.0000 0.0000 0.0000
vn 0.0000 0.2453 0.9694
vn -1.0000 -0.0000 0.0000
vn 1.0000 -0.0001 0.0048
vn -1.0000 -0.0096 0.0001
vn 1.0000 0.0096 -0.0001
usemtl Material.002
s off
f 54/1/1 56/2/1 53/3/1
f 51/4/2 50/5/2 52/6/2
f 57/7/3 59/8/3 60/9/3
f 94/10/4 96/11/4 93/12/4
f 62/13/3 64/14/3 61/15/3
f 66/16/5 68/17/5 65/18/5
f 89/19/6 91/20/6 92/21/6
f 70/22/3 72/23/3 69/24/3
f 74/25/3 76/26/3 73/27/3
f 78/28/5 80/29/5 77/30/5
f 82/31/5 84/32/5 81/33/5
f 85/34/5 87/35/5 88/36/5
f 54/1/7 55/37/7 56/2/7
f 51/4/2 49/38/2 50/5/2
f 57/7/3 58/39/3 59/8/3
f 94/10/4 95/40/4 96/11/4
f 62/13/3 63/41/3 64/14/3
f 66/16/5 67/42/5 68/17/5
f 89/19/8 90/43/8 91/20/8
f 70/22/3 71/44/3 72/23/3
f 74/25/3 75/45/3 76/26/3
f 78/28/5 79/46/5 80/29/5
f 82/31/5 83/47/5 84/32/5
f 85/34/5 86/48/5 87/35/5
