# Blender v2.92.0 OBJ File: 'mobil.blend'
# www.blender.org
mtllib ban.mtl
o Cylinder
v 1.320057 -0.176986 3.009406
v 1.320057 -0.169629 3.448824
v 1.537650 -0.235290 3.009406
v 1.541328 -0.228918 3.448824
v 1.696938 -0.394579 3.009406
v 1.703310 -0.390900 3.448824
v 1.755242 -0.612171 3.009406
v 1.762600 -0.612171 3.448824
v 1.696938 -0.829764 3.009406
v 1.703310 -0.833443 3.448824
v 1.537650 -0.989053 3.009406
v 1.541328 -0.995424 3.448824
v 1.320057 -1.047357 3.009406
v 1.320057 -1.054714 3.448824
v 1.102465 -0.989053 3.009406
v 1.098786 -0.995424 3.448824
v 0.943176 -0.829764 3.009406
v 0.936804 -0.833443 3.448824
v 0.884872 -0.612172 3.009406
v 0.877515 -0.612172 3.448824
v 0.943175 -0.394579 3.009406
v 0.936804 -0.390900 3.448824
v 1.102464 -0.235290 3.009406
v 1.098786 -0.228919 3.448824
v 1.496372 -0.306785 3.448824
v 1.320057 -0.259542 3.448824
v 1.143742 -0.306785 3.448824
v 1.014671 -0.435857 3.448824
v 0.967428 -0.612172 3.448824
v 1.014671 -0.788486 3.448824
v 1.143742 -0.917557 3.448824
v 1.320057 -0.964801 3.448824
v 1.496372 -0.917558 3.448824
v 1.625443 -0.788486 3.448824
v 1.672687 -0.612171 3.448824
v 1.625443 -0.435857 3.448824
v 1.496372 -0.306785 3.414076
v 1.320057 -0.259542 3.414076
v 1.625443 -0.435857 3.414076
v 1.143742 -0.306785 3.414076
v 1.014671 -0.435857 3.414076
v 0.967428 -0.612172 3.414076
v 1.014671 -0.788486 3.414076
v 1.143742 -0.917557 3.414076
v 1.320057 -0.964801 3.414076
v 1.496372 -0.917558 3.414076
v 1.625443 -0.788486 3.414076
v 1.672687 -0.612171 3.414076
v 1.459085 -0.371369 3.414076
v 1.320057 -0.334116 3.414076
v 1.181029 -0.371369 3.414076
v 1.079254 -0.473144 3.414076
v 1.042002 -0.612172 3.414076
v 1.079254 -0.751199 3.414076
v 1.181030 -0.852974 3.414076
v 1.320057 -0.890227 3.414076
v 1.459085 -0.852974 3.414076
v 1.560860 -0.751199 3.414076
v 1.598112 -0.612171 3.414076
v 1.560860 -0.473144 3.414076
v -1.827745 -0.775265 3.453550
v -1.734423 -0.750259 3.453550
v 1.413379 -0.450534 3.453550
v 1.320057 -0.425528 3.453550
v 1.481695 -0.518850 3.453550
v 1.226735 -0.450534 3.453550
v 1.158419 -0.518850 3.453550
v 1.133414 -0.612172 3.453550
v 1.158420 -0.705493 3.453550
v 1.226736 -0.773809 3.453550
v 1.320057 -0.798815 3.453550
v 1.413379 -0.773809 3.453550
v 1.481695 -0.705493 3.453550
v 1.506700 -0.612172 3.453550
vt 1.000000 1.000000
vt 0.916667 0.500000
vt 1.000000 0.500000
vt 0.916667 1.000000
vt 0.833333 0.500000
vt 0.833333 1.000000
vt 0.750000 0.500000
vt 0.750000 1.000000
vt 0.666667 0.500000
vt 0.666667 1.000000
vt 0.583333 0.500000
vt 0.583333 1.000000
vt 0.500000 0.500000
vt 0.500000 1.000000
vt 0.416667 0.500000
vt 0.416667 1.000000
vt 0.333333 0.500000
vt 0.333333 1.000000
vt 0.250000 0.500000
vt 0.250000 1.000000
vt 0.166667 0.500000
vt 0.345619 0.084383
vt 0.250000 0.058762
vt 0.250000 0.058762
vt 0.166667 1.000000
vt 0.083333 0.500000
vt 0.083333 1.000000
vt 0.000000 0.500000
vt 0.510000 0.250000
vt 0.630000 0.457846
vt 0.990000 0.250000
vt 0.250000 0.490000
vt 0.345619 0.415617
vt 0.370000 0.457846
vt 0.130000 0.457846
vt 0.250000 0.441238
vt 0.042154 0.370000
vt 0.154381 0.415617
vt 0.010000 0.250000
vt 0.084383 0.345619
vt 0.042154 0.130000
vt 0.058762 0.250000
vt 0.130000 0.042154
vt 0.084383 0.154381
vt 0.154381 0.084383
vt 0.250000 0.010000
vt 0.457846 0.130000
vt 0.370000 0.042154
vt 0.441238 0.250000
vt 0.415617 0.154381
vt 0.457846 0.370000
vt 0.490000 0.250000
vt 0.415617 0.345619
vt 0.325397 0.119408
vt 0.250000 0.099205
vt 0.250000 0.099205
vt 0.415617 0.345619
vt 0.345619 0.084383
vt 0.250000 0.441238
vt 0.415617 0.154381
vt 0.154381 0.415617
vt 0.441238 0.250000
vt 0.084383 0.345619
vt 0.058762 0.250000
vt 0.084383 0.154381
vt 0.154381 0.084383
vt 0.345619 0.415617
vt 0.119408 0.325397
vt 0.380592 0.325397
vt 0.380592 0.325397
vt 0.325397 0.380592
vt 0.380592 0.174602
vt 0.325397 0.119408
vt 0.174602 0.380592
vt 0.250000 0.400795
vt 0.250000 0.400795
vt 0.400795 0.250000
vt 0.380592 0.174602
vt 0.119408 0.325397
vt 0.174602 0.380592
vt 0.400795 0.250000
vt 0.099205 0.250000
vt 0.119408 0.174602
vt 0.099205 0.250000
vt 0.174603 0.119408
vt 0.119408 0.174602
vt 0.174603 0.119408
vt 0.325397 0.380592
vt 0.000000 1.000000
vt 0.750000 0.490000
vt 0.870000 0.457846
vt 0.957846 0.370000
vt 0.957846 0.130000
vt 0.630000 0.042154
vt 0.870000 0.042154
vt 0.750000 0.010000
vt 0.542154 0.130000
vt 0.542154 0.370000
vn 0.2588 0.9658 -0.0162
vn 0.7070 0.7070 -0.0162
vn 0.9658 0.2588 -0.0162
vn 0.9658 -0.2588 -0.0162
vn 0.7070 -0.7070 -0.0162
vn 0.2588 -0.9658 -0.0162
vn -0.2588 -0.9658 -0.0162
vn -0.7070 -0.7070 -0.0162
vn -0.9658 -0.2588 -0.0162
vn -0.9658 0.2588 -0.0162
vn -0.2588 0.9659 0.0000
vn -0.7070 0.7070 -0.0162
vn -0.2588 0.9658 -0.0162
vn 0.0000 0.0000 -1.0000
vn 0.0000 0.0000 1.0000
vn 0.1056 -0.3942 0.9129
vn -0.7071 -0.7071 0.0000
vn -0.7071 0.7071 0.0000
vn 0.2588 -0.9659 0.0000
vn -0.9659 0.2588 0.0000
vn 0.7071 -0.7071 0.0000
vn -0.9659 -0.2588 0.0000
vn 0.9659 -0.2588 0.0000
vn 0.9659 0.2588 0.0000
vn 0.7071 0.7071 0.0000
vn 0.2588 0.9659 0.0000
vn -0.2588 -0.9659 0.0000
vn 0.2886 0.2886 0.9129
vn 0.2886 -0.2886 0.9129
vn -0.1056 0.3942 0.9129
vn 0.3942 -0.1056 0.9129
vn -0.2886 0.2886 0.9129
vn 0.3942 0.1056 0.9129
vn -0.3942 0.1056 0.9129
vn -0.3942 -0.1056 0.9129
vn -0.2886 -0.2886 0.9129
vn -0.1056 -0.3942 0.9129
vn 0.1056 0.3942 0.9129
usemtl Material.007
s off
f 2/1/1 3/2/1 1/3/1
f 4/4/2 5/5/2 3/2/2
f 6/6/3 7/7/3 5/5/3
f 8/8/4 9/9/4 7/7/4
f 10/10/5 11/11/5 9/9/5
f 12/12/6 13/13/6 11/11/6
f 14/14/7 15/15/7 13/13/7
f 16/16/8 17/17/8 15/15/8
f 18/18/9 19/19/9 17/17/9
f 20/20/10 21/21/10 19/19/10
f 33/22/11 45/23/11 32/24/11
f 22/25/12 23/26/12 21/21/12
f 24/27/13 1/28/13 23/26/13
f 19/29/14 23/30/14 7/31/14
f 2/32/15 25/33/15 4/34/15
f 24/35/15 26/36/15 2/32/15
f 22/37/15 27/38/15 24/35/15
f 20/39/15 28/40/15 22/37/15
f 18/41/15 29/42/15 20/39/15
f 16/43/15 30/44/15 18/41/15
f 16/43/15 32/24/15 31/45/15
f 14/46/15 33/22/15 32/24/15
f 10/47/15 33/22/15 12/48/15
f 10/47/15 35/49/15 34/50/15
f 6/51/15 35/49/15 8/52/15
f 6/51/15 25/33/15 36/53/15
f 57/54/16 71/55/16 56/56/16
f 25/33/17 39/57/17 36/53/17
f 34/50/18 46/58/18 33/22/18
f 27/38/19 38/59/19 26/36/19
f 35/49/20 47/60/20 34/50/20
f 28/40/21 40/61/21 27/38/21
f 36/53/22 48/62/22 35/49/22
f 29/42/23 41/63/23 28/40/23
f 30/44/24 42/64/24 29/42/24
f 31/45/25 43/65/25 30/44/25
f 32/24/26 44/66/26 31/45/26
f 26/36/27 37/67/27 25/33/27
f 67/68/15 71/55/15 65/69/15
f 60/70/28 63/71/28 65/69/28
f 58/72/29 72/73/29 57/54/29
f 51/74/30 64/75/30 50/76/30
f 58/72/31 74/77/31 73/78/31
f 52/79/32 66/80/32 51/74/32
f 60/70/33 74/77/33 59/81/33
f 53/82/34 67/68/34 52/79/34
f 54/83/35 68/84/35 53/82/35
f 55/85/36 69/86/36 54/83/36
f 55/85/37 71/55/37 70/87/37
f 49/88/38 64/75/38 63/71/38
f 2/1/1 4/4/1 3/2/1
f 4/4/2 6/6/2 5/5/2
f 6/6/3 8/8/3 7/7/3
f 8/8/4 10/10/4 9/9/4
f 10/10/5 12/12/5 11/11/5
f 12/12/6 14/14/6 13/13/6
f 14/14/7 16/16/7 15/15/7
f 16/16/8 18/18/8 17/17/8
f 18/18/9 20/20/9 19/19/9
f 20/20/10 22/25/10 21/21/10
f 33/22/11 46/58/11 45/23/11
f 22/25/12 24/27/12 23/26/12
f 24/27/13 2/89/13 1/28/13
f 23/30/14 1/90/14 3/91/14
f 3/91/14 5/92/14 23/30/14
f 5/92/14 7/31/14 23/30/14
f 7/31/14 9/93/14 15/94/14
f 9/93/14 11/95/14 15/94/14
f 11/95/14 13/96/14 15/94/14
f 15/94/14 17/97/14 19/29/14
f 19/29/14 21/98/14 23/30/14
f 15/94/14 19/29/14 7/31/14
f 2/32/15 26/36/15 25/33/15
f 24/35/15 27/38/15 26/36/15
f 22/37/15 28/40/15 27/38/15
f 20/39/15 29/42/15 28/40/15
f 18/41/15 30/44/15 29/42/15
f 16/43/15 31/45/15 30/44/15
f 16/43/15 14/46/15 32/24/15
f 14/46/15 12/48/15 33/22/15
f 10/47/15 34/50/15 33/22/15
f 10/47/15 8/52/15 35/49/15
f 6/51/15 36/53/15 35/49/15
f 6/51/15 4/34/15 25/33/15
f 57/54/16 72/73/16 71/55/16
f 25/33/17 37/67/17 39/57/17
f 34/50/18 47/60/18 46/58/18
f 27/38/19 40/61/19 38/59/19
f 35/49/20 48/62/20 47/60/20
f 28/40/21 41/63/21 40/61/21
f 36/53/22 39/57/22 48/62/22
f 29/42/23 42/64/23 41/63/23
f 30/44/24 43/65/24 42/64/24
f 31/45/25 44/66/25 43/65/25
f 32/24/26 45/23/26 44/66/26
f 26/36/27 38/59/27 37/67/27
f 65/69/15 63/71/15 64/75/15
f 64/75/15 66/80/15 65/69/15
f 66/80/15 67/68/15 65/69/15
f 67/68/15 68/84/15 71/55/15
f 68/84/15 69/86/15 71/55/15
f 69/86/15 70/87/15 71/55/15
f 71/55/15 72/73/15 73/78/15
f 73/78/15 74/77/15 65/69/15
f 71/55/15 73/78/15 65/69/15
f 60/70/28 49/88/28 63/71/28
f 58/72/29 73/78/29 72/73/29
f 51/74/30 66/80/30 64/75/30
f 58/72/31 59/81/31 74/77/31
f 52/79/32 67/68/32 66/80/32
f 60/70/33 65/69/33 74/77/33
f 53/82/34 68/84/34 67/68/34
f 54/83/35 69/86/35 68/84/35
f 55/85/36 70/87/36 69/86/36
f 55/85/37 56/56/37 71/55/37
f 49/88/38 50/76/38 64/75/38
usemtl Material.008
f 38/59/15 49/88/15 37/67/15
f 40/61/15 50/76/15 38/59/15
f 40/61/15 52/79/15 51/74/15
f 42/64/15 52/79/15 41/63/15
f 42/64/15 54/83/15 53/82/15
f 44/66/15 54/83/15 43/65/15
f 44/66/15 56/56/15 55/85/15
f 46/58/15 56/56/15 45/23/15
f 47/60/15 57/54/15 46/58/15
f 47/60/15 59/81/15 58/72/15
f 39/57/15 59/81/15 48/62/15
f 39/57/15 49/88/15 60/70/15
f 38/59/15 50/76/15 49/88/15
f 40/61/15 51/74/15 50/76/15
f 40/61/15 41/63/15 52/79/15
f 42/64/15 53/82/15 52/79/15
f 42/64/15 43/65/15 54/83/15
f 44/66/15 55/85/15 54/83/15
f 44/66/15 45/23/15 56/56/15
f 46/58/15 57/54/15 56/56/15
f 47/60/15 58/72/15 57/54/15
f 47/60/15 48/62/15 59/81/15
f 39/57/15 60/70/15 59/81/15
f 39/57/15 37/67/15 49/88/15
l 61 62
o Cylinder.001_Cylinder.003
v 1.320057 -0.176986 1.040465
v 1.320057 -0.169629 1.479882
v 1.537650 -0.235290 1.040465
v 1.541328 -0.228918 1.479882
v 1.696938 -0.394579 1.040465
v 1.703310 -0.390900 1.479882
v 1.755242 -0.612171 1.040465
v 1.762600 -0.612171 1.479882
v 1.696938 -0.829764 1.040465
v 1.703310 -0.833443 1.479882
v 1.537650 -0.989053 1.040465
v 1.541328 -0.995424 1.479882
v 1.320057 -1.047357 1.040465
v 1.320057 -1.054714 1.479882
v 1.102465 -0.989053 1.040465
v 1.098786 -0.995424 1.479882
v 0.943176 -0.829764 1.040465
v 0.936804 -0.833443 1.479882
v 0.884872 -0.612172 1.040465
v 0.877515 -0.612172 1.479882
v 0.943175 -0.394579 1.040465
v 0.936804 -0.390900 1.479882
v 1.102464 -0.235290 1.040465
v 1.098786 -0.228919 1.479882
v 1.496372 -0.306785 1.479882
v 1.320057 -0.259542 1.479882
v 1.143742 -0.306785 1.479882
v 1.014671 -0.435857 1.479882
v 0.967428 -0.612172 1.479882
v 1.014671 -0.788486 1.479882
v 1.143742 -0.917557 1.479882
v 1.320057 -0.964801 1.479882
v 1.496372 -0.917558 1.479882
v 1.625443 -0.788486 1.479882
v 1.672687 -0.612171 1.479882
v 1.625443 -0.435857 1.479882
v 1.496372 -0.306785 1.445134
v 1.320057 -0.259542 1.445134
v 1.625443 -0.435857 1.445134
v 1.143742 -0.306785 1.445134
v 1.014671 -0.435857 1.445134
v 0.967428 -0.612172 1.445134
v 1.014671 -0.788486 1.445134
v 1.143742 -0.917557 1.445134
v 1.320057 -0.964801 1.445134
v 1.496372 -0.917558 1.445134
v 1.625443 -0.788486 1.445134
v 1.672687 -0.612171 1.445134
v 1.459085 -0.371369 1.445134
v 1.320057 -0.334116 1.445134
v 1.181029 -0.371369 1.445134
v 1.079254 -0.473144 1.445134
v 1.042002 -0.612172 1.445134
v 1.079254 -0.751199 1.445134
v 1.181030 -0.852974 1.445134
v 1.320057 -0.890227 1.445134
v 1.459085 -0.852974 1.445134
v 1.560860 -0.751199 1.445134
v 1.598112 -0.612171 1.445134
v 1.560860 -0.473144 1.445134
v -1.827745 -0.775265 1.484608
v -1.734423 -0.750259 1.484608
v 1.413379 -0.450534 1.484608
v 1.320057 -0.425528 1.484608
v 1.481695 -0.518850 1.484608
v 1.226735 -0.450534 1.484608
v 1.158419 -0.518850 1.484608
v 1.133414 -0.612172 1.484608
v 1.158420 -0.705493 1.484608
v 1.226736 -0.773809 1.484608
v 1.320057 -0.798815 1.484608
v 1.413379 -0.773809 1.484608
v 1.481695 -0.705493 1.484608
v 1.506700 -0.612172 1.484608
vt 1.000000 1.000000
vt 0.916667 0.500000
vt 1.000000 0.500000
vt 0.916667 1.000000
vt 0.833333 0.500000
vt 0.833333 1.000000
vt 0.750000 0.500000
vt 0.750000 1.000000
vt 0.666667 0.500000
vt 0.666667 1.000000
vt 0.583333 0.500000
vt 0.583333 1.000000
vt 0.500000 0.500000
vt 0.500000 1.000000
vt 0.416667 0.500000
vt 0.416667 1.000000
vt 0.333333 0.500000
vt 0.333333 1.000000
vt 0.250000 0.500000
vt 0.250000 1.000000
vt 0.166667 0.500000
vt 0.345619 0.084383
vt 0.250000 0.058762
vt 0.250000 0.058762
vt 0.166667 1.000000
vt 0.083333 0.500000
vt 0.083333 1.000000
vt 0.000000 0.500000
vt 0.510000 0.250000
vt 0.630000 0.457846
vt 0.990000 0.250000
vt 0.250000 0.490000
vt 0.345619 0.415617
vt 0.370000 0.457846
vt 0.130000 0.457846
vt 0.250000 0.441238
vt 0.042154 0.370000
vt 0.154381 0.415617
vt 0.010000 0.250000
vt 0.084383 0.345619
vt 0.042154 0.130000
vt 0.058762 0.250000
vt 0.130000 0.042154
vt 0.084383 0.154381
vt 0.154381 0.084383
vt 0.250000 0.010000
vt 0.457846 0.130000
vt 0.370000 0.042154
vt 0.441238 0.250000
vt 0.415617 0.154381
vt 0.457846 0.370000
vt 0.490000 0.250000
vt 0.415617 0.345619
vt 0.325397 0.119408
vt 0.250000 0.099205
vt 0.250000 0.099205
vt 0.415617 0.345619
vt 0.345619 0.084383
vt 0.250000 0.441238
vt 0.415617 0.154381
vt 0.154381 0.415617
vt 0.441238 0.250000
vt 0.084383 0.345619
vt 0.058762 0.250000
vt 0.084383 0.154381
vt 0.154381 0.084383
vt 0.345619 0.415617
vt 0.119408 0.325397
vt 0.380592 0.325397
vt 0.380592 0.325397
vt 0.325397 0.380592
vt 0.380592 0.174602
vt 0.325397 0.119408
vt 0.174602 0.380592
vt 0.250000 0.400795
vt 0.250000 0.400795
vt 0.400795 0.250000
vt 0.380592 0.174602
vt 0.119408 0.325397
vt 0.174602 0.380592
vt 0.400795 0.250000
vt 0.099205 0.250000
vt 0.119408 0.174602
vt 0.099205 0.250000
vt 0.174603 0.119408
vt 0.119408 0.174602
vt 0.174603 0.119408
vt 0.325397 0.380592
vt 0.000000 1.000000
vt 0.750000 0.490000
vt 0.870000 0.457846
vt 0.957846 0.370000
vt 0.957846 0.130000
vt 0.630000 0.042154
vt 0.870000 0.042154
vt 0.750000 0.010000
vt 0.542154 0.130000
vt 0.542154 0.370000
vn 0.2588 0.9658 -0.0162
vn 0.7070 0.7070 -0.0162
vn 0.9658 0.2588 -0.0162
vn 0.9658 -0.2588 -0.0162
vn 0.7070 -0.7070 -0.0162
vn 0.2588 -0.9658 -0.0162
vn -0.2588 -0.9658 -0.0162
vn -0.7070 -0.7070 -0.0162
vn -0.9658 -0.2588 -0.0162
vn -0.9658 0.2588 -0.0162
vn -0.2588 0.9659 0.0000
vn -0.7070 0.7070 -0.0162
vn -0.2588 0.9658 -0.0162
vn -0.0000 0.0000 -1.0000
vn 0.0000 0.0000 1.0000
vn 0.1056 -0.3942 0.9129
vn -0.7071 -0.7071 0.0000
vn -0.7071 0.7071 0.0000
vn 0.2588 -0.9659 0.0000
vn -0.9659 0.2588 0.0000
vn 0.7071 -0.7071 0.0000
vn -0.9659 -0.2588 0.0000
vn 0.9659 -0.2588 0.0000
vn 0.9659 0.2588 0.0000
vn 0.7071 0.7071 0.0000
vn 0.2588 0.9659 0.0000
vn -0.2588 -0.9659 0.0000
vn 0.2886 0.2886 0.9129
vn 0.2886 -0.2886 0.9129
vn -0.1056 0.3942 0.9129
vn 0.3942 -0.1056 0.9129
vn -0.2886 0.2886 0.9129
vn 0.3942 0.1056 0.9129
vn -0.3942 0.1056 0.9129
vn -0.3942 -0.1056 0.9129
vn -0.2886 -0.2886 0.9129
vn -0.1056 -0.3942 0.9129
vn 0.1056 0.3942 0.9129
usemtl Material.012
s off
f 76/99/39 77/100/39 75/101/39
f 78/102/40 79/103/40 77/100/40
f 80/104/41 81/105/41 79/103/41
f 82/106/42 83/107/42 81/105/42
f 84/108/43 85/109/43 83/107/43
f 86/110/44 87/111/44 85/109/44
f 88/112/45 89/113/45 87/111/45
f 90/114/46 91/115/46 89/113/46
f 92/116/47 93/117/47 91/115/47
f 94/118/48 95/119/48 93/117/48
f 107/120/49 119/121/49 106/122/49
f 96/123/50 97/124/50 95/119/50
f 98/125/51 75/126/51 97/124/51
f 93/127/52 97/128/52 81/129/52
f 76/130/53 99/131/53 78/132/53
f 98/133/53 100/134/53 76/130/53
f 96/135/53 101/136/53 98/133/53
f 94/137/53 102/138/53 96/135/53
f 92/139/53 103/140/53 94/137/53
f 90/141/53 104/142/53 92/139/53
f 90/141/53 106/122/53 105/143/53
f 88/144/53 107/120/53 106/122/53
f 84/145/53 107/120/53 86/146/53
f 84/145/53 109/147/53 108/148/53
f 80/149/53 109/147/53 82/150/53
f 80/149/53 99/131/53 110/151/53
f 131/152/54 145/153/54 130/154/54
f 99/131/55 113/155/55 110/151/55
f 108/148/56 120/156/56 107/120/56
f 101/136/57 112/157/57 100/134/57
f 109/147/58 121/158/58 108/148/58
f 102/138/59 114/159/59 101/136/59
f 110/151/60 122/160/60 109/147/60
f 103/140/61 115/161/61 102/138/61
f 104/142/62 116/162/62 103/140/62
f 105/143/63 117/163/63 104/142/63
f 106/122/64 118/164/64 105/143/64
f 100/134/65 111/165/65 99/131/65
f 141/166/53 145/153/53 139/167/53
f 134/168/66 137/169/66 139/167/66
f 132/170/67 146/171/67 131/152/67
f 125/172/68 138/173/68 124/174/68
f 132/170/69 148/175/69 147/176/69
f 126/177/70 140/178/70 125/172/70
f 134/168/71 148/175/71 133/179/71
f 127/180/72 141/166/72 126/177/72
f 128/181/73 142/182/73 127/180/73
f 129/183/74 143/184/74 128/181/74
f 129/183/75 145/153/75 144/185/75
f 123/186/76 138/173/76 137/169/76
f 76/99/39 78/102/39 77/100/39
f 78/102/40 80/104/40 79/103/40
f 80/104/41 82/106/41 81/105/41
f 82/106/42 84/108/42 83/107/42
f 84/108/43 86/110/43 85/109/43
f 86/110/44 88/112/44 87/111/44
f 88/112/45 90/114/45 89/113/45
f 90/114/46 92/116/46 91/115/46
f 92/116/47 94/118/47 93/117/47
f 94/118/48 96/123/48 95/119/48
f 107/120/49 120/156/49 119/121/49
f 96/123/50 98/125/50 97/124/50
f 98/125/51 76/187/51 75/126/51
f 97/128/52 75/188/52 77/189/52
f 77/189/52 79/190/52 97/128/52
f 79/190/52 81/129/52 97/128/52
f 81/129/52 83/191/52 89/192/52
f 83/191/52 85/193/52 89/192/52
f 85/193/52 87/194/52 89/192/52
f 89/192/52 91/195/52 93/127/52
f 93/127/52 95/196/52 97/128/52
f 89/192/52 93/127/52 81/129/52
f 76/130/53 100/134/53 99/131/53
f 98/133/53 101/136/53 100/134/53
f 96/135/53 102/138/53 101/136/53
f 94/137/53 103/140/53 102/138/53
f 92/139/53 104/142/53 103/140/53
f 90/141/53 105/143/53 104/142/53
f 90/141/53 88/144/53 106/122/53
f 88/144/53 86/146/53 107/120/53
f 84/145/53 108/148/53 107/120/53
f 84/145/53 82/150/53 109/147/53
f 80/149/53 110/151/53 109/147/53
f 80/149/53 78/132/53 99/131/53
f 131/152/54 146/171/54 145/153/54
f 99/131/55 111/165/55 113/155/55
f 108/148/56 121/158/56 120/156/56
f 101/136/57 114/159/57 112/157/57
f 109/147/58 122/160/58 121/158/58
f 102/138/59 115/161/59 114/159/59
f 110/151/60 113/155/60 122/160/60
f 103/140/61 116/162/61 115/161/61
f 104/142/62 117/163/62 116/162/62
f 105/143/63 118/164/63 117/163/63
f 106/122/64 119/121/64 118/164/64
f 100/134/65 112/157/65 111/165/65
f 139/167/53 137/169/53 138/173/53
f 138/173/53 140/178/53 139/167/53
f 140/178/53 141/166/53 139/167/53
f 141/166/53 142/182/53 145/153/53
f 142/182/53 143/184/53 145/153/53
f 143/184/53 144/185/53 145/153/53
f 145/153/53 146/171/53 147/176/53
f 147/176/53 148/175/53 139/167/53
f 145/153/53 147/176/53 139/167/53
f 134/168/66 123/186/66 137/169/66
f 132/170/67 147/176/67 146/171/67
f 125/172/68 140/178/68 138/173/68
f 132/170/69 133/179/69 148/175/69
f 126/177/70 141/166/70 140/178/70
f 134/168/71 139/167/71 148/175/71
f 127/180/72 142/182/72 141/166/72
f 128/181/73 143/184/73 142/182/73
f 129/183/74 144/185/74 143/184/74
f 129/183/75 130/154/75 145/153/75
f 123/186/76 124/174/76 138/173/76
usemtl Material.011
f 112/157/53 123/186/53 111/165/53
f 114/159/53 124/174/53 112/157/53
f 114/159/53 126/177/53 125/172/53
f 116/162/53 126/177/53 115/161/53
f 116/162/53 128/181/53 127/180/53
f 118/164/53 128/181/53 117/163/53
f 118/164/53 130/154/53 129/183/53
f 120/156/53 130/154/53 119/121/53
f 121/158/53 131/152/53 120/156/53
f 121/158/53 133/179/53 132/170/53
f 113/155/53 133/179/53 122/160/53
f 113/155/53 123/186/53 134/168/53
f 112/157/53 124/174/53 123/186/53
f 114/159/53 125/172/53 124/174/53
f 114/159/53 115/161/53 126/177/53
f 116/162/53 127/180/53 126/177/53
f 116/162/53 117/163/53 128/181/53
f 118/164/53 129/183/53 128/181/53
f 118/164/53 119/121/53 130/154/53
f 120/156/53 131/152/53 130/154/53
f 121/158/53 132/170/53 131/152/53
f 121/158/53 122/160/53 133/179/53
f 113/155/53 134/168/53 133/179/53
f 113/155/53 111/165/53 123/186/53
l 135 136
