# Blender v2.92.0 OBJ File: 'GrafKom.blend'
# www.blender.org
mtllib carLeftWheel.mtl
o Cylinder
v 7.475714 0.953811 1.303157
v 7.036888 0.888150 1.084373
v 7.036298 0.946454 1.301964
v 7.476315 0.894522 1.081887
v 7.037321 0.728861 0.925084
v 7.476915 0.511269 0.860617
v 7.037479 0.511269 0.866781
v 7.476754 0.289998 0.919906
v 7.037321 0.293676 0.925084
v 7.036888 0.134387 1.084373
v 7.476315 0.128016 1.081887
v 7.036298 0.076083 1.301964
v 7.475714 0.068726 1.303157
v 7.035707 0.134387 1.519556
v 7.474672 0.289997 1.686409
v 7.035274 0.293676 1.678845
v 7.035115 0.511268 1.737148
v 7.474511 0.511268 1.745699
v 7.035274 0.728861 1.678845
v 7.476671 0.511269 0.950530
v 7.441794 0.334954 0.997678
v 7.476542 0.334954 0.997773
v 7.474672 0.732540 1.686409
v 7.035707 0.888150 1.519556
v 7.475113 0.894522 1.524429
v 7.484262 0.930261 -1.844633
v 7.045437 0.864600 -2.063417
v 7.044847 0.922904 -1.845826
v 7.484863 0.870972 -2.065903
v 7.045870 0.705312 -2.222706
v 7.485303 0.708990 -2.227885
v 7.046028 0.487719 -2.281010
v 7.485464 0.487719 -2.287173
v 7.045870 0.270126 -2.222706
v 7.485303 0.266448 -2.227885
v 7.045437 0.110838 -2.063417
v 7.484863 0.104466 -2.065903
v 7.044847 0.052534 -1.845826
v 7.484262 0.045176 -1.844633
v 7.044255 0.110837 -1.628234
v 7.483661 0.104466 -1.623363
v 7.043822 0.270126 -1.468946
v 7.483221 0.266448 -1.461381
v 7.043664 0.487719 -1.410643
v 7.483060 0.487719 -1.402092
v 7.043822 0.705311 -1.468946
v 7.484741 0.182333 -2.020947
v 7.449514 0.135089 -1.844727
v 7.484262 0.135089 -1.844633
v 7.483221 0.708990 -1.461380
v 7.044255 0.864600 -1.628234
v 7.483662 0.870972 -1.623362
v 7.476192 0.816655 1.126843
v 7.475714 0.863898 1.303157
v 7.475235 0.816655 1.479472
v 7.474884 0.687583 1.608543
v 7.474755 0.511269 1.655786
v 7.475112 0.128016 1.524428
v 7.474884 0.334954 1.608542
v 7.475234 0.205883 1.479472
v 7.476192 0.205883 1.126843
v 7.475714 0.158639 1.303157
v 7.476754 0.732540 0.919906
v 7.476542 0.687583 0.997773
v 7.484741 0.793105 -2.020947
v 7.484262 0.840348 -1.844633
v 7.483784 0.793105 -1.668318
v 7.483433 0.664034 -1.539247
v 7.483304 0.487719 -1.492004
v 7.483433 0.311404 -1.539248
v 7.483783 0.182333 -1.668319
v 7.485220 0.487719 -2.197262
v 7.485091 0.311404 -2.150017
v 7.485091 0.664034 -2.150017
v 7.441619 0.372241 1.062262
v 7.480946 0.511269 1.116528
v 7.480878 0.417947 1.141534
v 7.449891 0.246916 -1.983754
v 7.488988 0.301076 -1.844620
v 7.449514 0.209664 -1.844727
v 7.450343 0.664034 -2.150111
v 7.440487 0.816655 1.479378
v 7.449993 0.182333 -2.021042
v 7.441923 0.511269 0.950435
v 7.449514 0.840348 -1.844727
v 7.440136 0.687583 1.608449
v 7.450343 0.311404 -2.150111
v 7.449036 0.793105 -1.668412
v 7.440007 0.511269 1.655692
v 7.450472 0.487719 -2.197356
v 7.448685 0.664034 -1.539341
v 7.440136 0.334954 1.608448
v 7.448556 0.487719 -1.492099
v 7.440486 0.205883 1.479378
v 7.441444 0.816655 1.126749
v 7.448685 0.311404 -1.539342
v 7.440966 0.158639 1.303063
v 7.441794 0.687583 0.997678
v 7.449035 0.182333 -1.668413
v 7.441444 0.205883 1.126749
v 7.449993 0.793105 -2.021042
v 7.440966 0.863898 1.303063
v 7.480878 0.604590 1.141534
v 7.480000 0.604590 1.464808
v 7.488548 0.581040 -1.682983
v 7.489427 0.581040 -2.006256
v 7.450168 0.626746 -2.085528
v 7.489241 0.649357 -1.937941
v 7.440588 0.752071 1.442091
v 7.480186 0.672906 1.396492
v 7.450168 0.348691 -2.085528
v 7.489241 0.326081 -1.937941
v 7.441720 0.511269 1.025009
v 7.449137 0.728522 -1.705700
v 7.488988 0.674362 -1.844620
v 7.449514 0.765774 -1.844727
v 7.440210 0.511269 1.581117
v 7.440311 0.650296 1.543865
v 7.489494 0.487719 -2.031262
v 7.489427 0.394397 -2.006256
v 7.448860 0.626746 -1.603925
v 7.488734 0.649356 -1.751298
v 7.480000 0.417947 1.464808
v 7.479932 0.511269 1.489813
v 7.450269 0.487719 -2.122782
v 7.448759 0.487719 -1.566673
v 7.440588 0.270466 1.442091
v 7.440311 0.372241 1.543865
v 7.448860 0.348691 -1.603925
v 7.488481 0.487719 -1.657978
v 7.480439 0.324626 1.303170
v 7.480186 0.349631 1.396492
v 7.441343 0.752071 1.164037
v 7.480439 0.697912 1.303170
v 7.480692 0.672906 1.209850
v 7.449137 0.246916 -1.705700
v 7.488548 0.394397 -1.682983
v 7.441342 0.270466 1.164037
v 7.440966 0.233214 1.303063
v 7.441619 0.650296 1.062261
v 7.488734 0.326081 -1.751298
v 7.480692 0.349631 1.209850
v 7.449892 0.728522 -1.983754
v 7.440966 0.789324 1.303063
vt 1.000000 1.000000
vt 0.916667 0.500000
vt 1.000000 0.500000
vt 0.916667 1.000000
vt 0.833333 0.500000
vt 0.750000 1.000000
vt 0.750000 0.500000
vt 0.666667 1.000000
vt 0.666667 0.500000
vt 0.583333 0.500000
vt 0.583333 1.000000
vt 0.500000 0.500000
vt 0.500000 1.000000
vt 0.416667 0.500000
vt 0.333333 1.000000
vt 0.333333 0.500000
vt 0.250000 0.500000
vt 0.250000 1.000000
vt 0.166667 0.500000
vt 0.441238 0.250000
vt 0.415617 0.154381
vt 0.415617 0.154381
vt 0.166667 1.000000
vt 0.083333 0.500000
vt 0.083333 1.000000
vt 0.000000 0.500000
vt 0.510000 0.250000
vt 0.630000 0.457846
vt 0.990000 0.250000
vt 1.000000 1.000000
vt 0.916667 0.500000
vt 1.000000 0.500000
vt 0.916667 1.000000
vt 0.833333 0.500000
vt 0.833333 1.000000
vt 0.750000 0.500000
vt 0.750000 1.000000
vt 0.666667 0.500000
vt 0.666667 1.000000
vt 0.583333 0.500000
vt 0.583333 1.000000
vt 0.500000 0.500000
vt 0.500000 1.000000
vt 0.416667 0.500000
vt 0.416667 1.000000
vt 0.333333 0.500000
vt 0.333333 1.000000
vt 0.250000 0.500000
vt 0.250000 1.000000
vt 0.166667 0.500000
vt 0.345619 0.084383
vt 0.250000 0.058762
vt 0.250000 0.058762
vt 0.166667 1.000000
vt 0.083333 0.500000
vt 0.083333 1.000000
vt 0.000000 0.500000
vt 0.510000 0.250000
vt 0.630000 0.457846
vt 0.990000 0.250000
vt 0.250000 0.490000
vt 0.345619 0.415617
vt 0.370000 0.457846
vt 0.130000 0.457846
vt 0.250000 0.441238
vt 0.042154 0.370000
vt 0.154381 0.415617
vt 0.010000 0.250000
vt 0.084383 0.345619
vt 0.042154 0.130000
vt 0.058762 0.250000
vt 0.130000 0.042154
vt 0.084383 0.154381
vt 0.250000 0.010000
vt 0.154381 0.084383
vt 0.345619 0.084383
vt 0.250000 0.058762
vt 0.457846 0.130000
vt 0.370000 0.042154
vt 0.490000 0.250000
vt 0.457846 0.370000
vt 0.415617 0.345619
vt 0.250000 0.490000
vt 0.345619 0.415617
vt 0.370000 0.457846
vt 0.130000 0.457846
vt 0.250000 0.441238
vt 0.042154 0.370000
vt 0.154381 0.415617
vt 0.010000 0.250000
vt 0.084383 0.345619
vt 0.042154 0.130000
vt 0.058762 0.250000
vt 0.130000 0.042154
vt 0.084383 0.154381
vt 0.154381 0.084383
vt 0.250000 0.010000
vt 0.457846 0.130000
vt 0.370000 0.042154
vt 0.441238 0.250000
vt 0.415617 0.154381
vt 0.457846 0.370000
vt 0.490000 0.250000
vt 0.415617 0.345619
vt 0.380592 0.174602
vt 0.400795 0.250000
vt 0.380592 0.174602
vt 0.325397 0.119408
vt 0.250000 0.099205
vt 0.250000 0.099205
vt 0.415617 0.345619
vt 0.154381 0.415617
vt 0.345619 0.084383
vt 0.441238 0.250000
vt 0.250000 0.441238
vt 0.084383 0.345619
vt 0.415617 0.154381
vt 0.154381 0.415617
vt 0.058762 0.250000
vt 0.441238 0.250000
vt 0.084383 0.345619
vt 0.084383 0.154381
vt 0.058762 0.250000
vt 0.154381 0.084383
vt 0.345619 0.415617
vt 0.084383 0.154381
vt 0.250000 0.058762
vt 0.415617 0.345619
vt 0.154381 0.084383
vt 0.345619 0.084383
vt 0.345619 0.415617
vt 0.250000 0.441238
vt 0.380592 0.325398
vt 0.119408 0.325397
vt 0.119408 0.325397
vt 0.380592 0.325397
vt 0.380592 0.325397
vt 0.325397 0.380592
vt 0.174602 0.380592
vt 0.174602 0.380592
vt 0.380592 0.174602
vt 0.325397 0.119408
vt 0.400795 0.250000
vt 0.174602 0.380592
vt 0.250000 0.400795
vt 0.250000 0.400795
vt 0.099205 0.250000
vt 0.119408 0.325397
vt 0.400795 0.250000
vt 0.380592 0.174602
vt 0.119408 0.325397
vt 0.174602 0.380592
vt 0.119408 0.174602
vt 0.099205 0.250000
vt 0.400795 0.250000
vt 0.099205 0.250000
vt 0.174602 0.119408
vt 0.119408 0.174602
vt 0.119408 0.174602
vt 0.099205 0.250000
vt 0.250000 0.099205
vt 0.174602 0.119408
vt 0.325398 0.380592
vt 0.250000 0.400795
vt 0.325398 0.380592
vt 0.174603 0.119408
vt 0.119408 0.174602
vt 0.325398 0.119408
vt 0.250000 0.099205
vt 0.380592 0.325398
vt 0.174603 0.119408
vt 0.325398 0.119408
vt 0.325397 0.380592
vt 0.250000 0.400795
vt 0.833333 1.000000
vt 0.416667 1.000000
vt 0.000000 1.000000
vt 0.750000 0.490000
vt 0.870000 0.457846
vt 0.957846 0.370000
vt 0.957846 0.130000
vt 0.870000 0.042154
vt 0.750000 0.010000
vt 0.630000 0.042154
vt 0.542154 0.130000
vt 0.542154 0.370000
vt 0.000000 1.000000
vt 0.750000 0.490000
vt 0.870000 0.457846
vt 0.957846 0.370000
vt 0.957846 0.130000
vt 0.630000 0.042154
vt 0.870000 0.042154
vt 0.750000 0.010000
vt 0.542154 0.130000
vt 0.542154 0.370000
vn -0.0155 0.9658 -0.2588
vn -0.0143 0.7070 -0.7071
vn -0.0135 0.2588 -0.9658
vn -0.0135 -0.2588 -0.9658
vn -0.0143 -0.7070 -0.7071
vn -0.0155 -0.9658 -0.2588
vn -0.0169 -0.9658 0.2587
vn -0.0181 -0.7070 0.7070
vn -0.0188 -0.2588 0.9658
vn -0.0188 0.2588 0.9658
vn -0.0026 0.2588 0.9659
vn -0.0181 0.7070 0.7070
vn -0.0169 0.9658 0.2587
vn -1.0000 0.0000 -0.0027
vn -0.0142 -0.7070 -0.7071
vn -0.0007 0.9659 0.2588
vn 1.0000 -0.0000 0.0027
vn 0.9140 -0.1056 -0.3917
vn 0.9132 -0.3942 -0.1032
vn -0.0019 -0.7071 0.7071
vn 0.0019 -0.7071 -0.7071
vn -0.0019 0.7071 0.7071
vn -0.0026 -0.2588 0.9659
vn 0.0007 -0.9659 -0.2588
vn 0.0026 -0.2588 -0.9659
vn 0.0026 0.2588 -0.9659
vn 0.0019 0.7071 -0.7071
vn 0.0007 0.9659 -0.2588
vn -0.0007 -0.9659 0.2588
vn 0.9137 0.2886 -0.2861
vn 0.9121 0.2886 0.2911
vn 0.9137 -0.2886 -0.2861
vn 0.9140 0.1056 -0.3917
vn 0.9126 0.3942 0.1081
vn 0.9119 0.1056 0.3967
vn 0.9119 -0.1056 0.3967
vn 0.9121 -0.2886 0.2911
vn 0.9126 -0.3942 0.1081
vn 0.9132 0.3942 -0.1032
usemtl Material.007
s 1
f 1/1/1 2/2/1 3/3/1
f 4/4/2 5/5/2 2/2/2
f 5/5/3 6/6/3 7/7/3
f 7/7/4 8/8/4 9/9/4
f 8/8/5 10/10/5 9/9/5
f 11/11/6 12/12/6 10/10/6
f 13/13/7 14/14/7 12/12/7
f 14/14/8 15/15/8 16/16/8
f 15/15/9 17/17/9 16/16/9
f 18/18/10 19/19/10 17/17/10
f 20/20/11 21/21/11 22/22/11
f 23/23/12 24/24/12 19/19/12
f 25/25/13 3/26/13 24/24/13
f 17/27/14 24/28/14 7/29/14
f 26/30/1 27/31/1 28/32/1
f 29/33/2 30/34/2 27/31/2
f 31/35/3 32/36/3 30/34/3
f 33/37/4 34/38/4 32/36/4
f 35/39/5 36/40/5 34/38/15
f 37/41/6 38/42/6 36/40/6
f 39/43/7 40/44/7 38/42/7
f 41/45/8 42/46/8 40/44/8
f 43/47/9 44/48/9 42/46/9
f 45/49/10 46/50/10 44/48/10
f 47/51/16 48/52/16 49/53/16
f 50/54/12 51/55/12 46/50/12
f 52/56/13 28/57/13 51/55/13
f 44/58/14 51/59/14 32/60/14
f 1/61/17 53/62/17 4/63/17
f 25/64/17 54/65/17 1/61/17
f 23/66/17 55/67/17 25/64/17
f 18/68/17 56/69/17 23/66/17
f 15/70/17 57/71/17 18/68/17
f 58/72/17 59/73/17 15/70/17
f 13/74/17 60/75/17 58/72/17
f 13/74/17 61/76/17 62/77/17
f 8/78/17 61/76/17 11/79/17
f 6/80/17 22/22/17 8/78/17
f 63/81/17 20/20/17 6/80/17
f 4/63/17 64/82/17 63/81/17
f 26/83/17 65/84/17 29/85/17
f 52/86/17 66/87/17 26/83/17
f 50/88/17 67/89/17 52/86/17
f 45/90/17 68/91/17 50/88/17
f 43/92/17 69/93/17 45/90/17
f 41/94/17 70/95/17 43/92/17
f 41/94/17 49/53/17 71/96/17
f 39/97/17 47/51/17 49/53/17
f 35/98/17 47/51/17 37/99/17
f 35/98/17 72/100/17 73/101/17
f 31/102/17 72/100/17 33/103/17
f 31/102/17 65/84/17 74/104/17
f 75/105/18 76/106/18 77/107/18
f 78/108/19 79/109/19 80/110/19
f 65/84/20 81/111/20 74/104/20
f 56/69/21 82/112/21 55/67/21
f 73/101/22 83/113/22 47/51/22
f 64/82/23 84/114/23 20/20/23
f 67/89/24 85/115/24 66/87/24
f 57/71/25 86/116/25 56/69/25
f 72/100/11 87/117/11 73/101/11
f 68/91/21 88/118/21 67/89/21
f 59/73/26 89/119/26 57/71/26
f 74/104/23 90/120/23 72/100/23
f 69/93/25 91/121/25 68/91/25
f 60/75/27 92/122/27 59/73/27
f 70/95/26 93/123/26 69/93/26
f 62/77/28 94/124/28 60/75/28
f 54/65/29 95/125/29 53/62/29
f 71/96/27 96/126/27 70/95/27
f 61/76/16 97/127/16 62/77/16
f 53/62/20 98/128/20 64/82/20
f 49/53/28 99/129/28 71/96/28
f 22/22/22 100/130/22 61/76/22
f 66/87/29 101/131/29 65/84/29
f 55/67/24 102/132/24 54/65/24
f 77/107/17 103/133/17 104/134/17
f 105/135/17 79/109/17 106/136/17
f 107/137/30 108/138/30 106/136/30
f 109/139/31 104/134/31 110/140/31
f 111/141/32 112/142/32 78/108/32
f 113/143/33 103/133/33 76/106/33
f 114/144/34 115/145/34 116/146/34
f 117/147/35 104/134/35 118/148/35
f 111/141/18 119/149/18 120/150/18
f 121/151/31 122/152/31 114/144/31
f 117/147/36 123/153/36 124/154/36
f 107/137/33 119/149/33 125/155/33
f 126/156/35 105/135/35 121/151/35
f 127/157/37 123/153/37 128/158/37
f 129/159/36 130/160/36 126/156/36
f 127/157/38 131/161/38 132/162/38
f 133/163/39 134/164/39 135/165/39
f 136/166/37 137/167/37 129/159/37
f 138/168/19 131/161/19 139/169/19
f 133/163/30 103/133/30 140/170/30
f 136/166/38 79/109/38 141/171/38
f 75/105/32 142/172/32 138/168/32
f 143/173/39 115/145/39 108/138/39
f 144/174/34 110/140/34 134/164/34
f 1/1/1 4/4/1 2/2/1
f 4/4/2 63/175/2 5/5/2
f 5/5/3 63/175/3 6/6/3
f 7/7/4 6/6/4 8/8/4
f 8/8/5 11/11/5 10/10/5
f 11/11/6 13/13/6 12/12/6
f 13/13/7 58/176/7 14/14/7
f 14/14/8 58/176/8 15/15/8
f 15/15/9 18/18/9 17/17/9
f 18/18/10 23/23/10 19/19/10
f 20/20/11 84/114/11 21/21/11
f 23/23/12 25/25/12 24/24/12
f 25/25/13 1/177/13 3/26/13
f 24/28/14 3/178/14 7/29/14
f 3/178/14 2/179/14 7/29/14
f 2/179/14 5/180/14 7/29/14
f 7/29/14 9/181/14 10/182/14
f 10/182/14 12/183/14 14/184/14
f 14/184/14 16/185/14 17/27/14
f 17/27/14 19/186/14 24/28/14
f 7/29/14 10/182/14 14/184/14
f 14/184/14 17/27/14 7/29/14
f 26/30/1 29/33/1 27/31/1
f 29/33/2 31/35/2 30/34/2
f 31/35/3 33/37/3 32/36/3
f 33/37/4 35/39/4 34/38/4
f 35/39/5 37/41/5 36/40/5
f 37/41/6 39/43/6 38/42/6
f 39/43/7 41/45/7 40/44/7
f 41/45/8 43/47/8 42/46/8
f 43/47/9 45/49/9 44/48/9
f 45/49/10 50/54/10 46/50/10
f 47/51/16 83/113/16 48/52/16
f 50/54/12 52/56/12 51/55/12
f 52/56/13 26/187/13 28/57/13
f 51/59/14 28/188/14 27/189/14
f 27/189/14 30/190/14 51/59/14
f 30/190/14 32/60/14 51/59/14
f 32/60/14 34/191/14 40/192/14
f 34/191/14 36/193/14 40/192/14
f 36/193/14 38/194/14 40/192/14
f 40/192/14 42/195/14 44/58/14
f 44/58/14 46/196/14 51/59/14
f 40/192/14 44/58/14 32/60/14
f 1/61/17 54/65/17 53/62/17
f 25/64/17 55/67/17 54/65/17
f 23/66/17 56/69/17 55/67/17
f 18/68/17 57/71/17 56/69/17
f 15/70/17 59/73/17 57/71/17
f 58/72/17 60/75/17 59/73/17
f 13/74/17 62/77/17 60/75/17
f 13/74/17 11/79/17 61/76/17
f 8/78/17 22/22/17 61/76/17
f 6/80/17 20/20/17 22/22/17
f 63/81/17 64/82/17 20/20/17
f 4/63/17 53/62/17 64/82/17
f 26/83/17 66/87/17 65/84/17
f 52/86/17 67/89/17 66/87/17
f 50/88/17 68/91/17 67/89/17
f 45/90/17 69/93/17 68/91/17
f 43/92/17 70/95/17 69/93/17
f 41/94/17 71/96/17 70/95/17
f 41/94/17 39/97/17 49/53/17
f 39/97/17 37/99/17 47/51/17
f 35/98/17 73/101/17 47/51/17
f 35/98/17 33/103/17 72/100/17
f 31/102/17 74/104/17 72/100/17
f 31/102/17 29/85/17 65/84/17
f 75/105/18 113/143/18 76/106/18
f 78/108/19 112/142/19 79/109/19
f 65/84/20 101/131/20 81/111/20
f 56/69/21 86/116/21 82/112/21
f 73/101/22 87/117/22 83/113/22
f 64/82/23 98/128/23 84/114/23
f 67/89/24 88/118/24 85/115/24
f 57/71/25 89/119/25 86/116/25
f 72/100/11 90/120/11 87/117/11
f 68/91/21 91/121/21 88/118/21
f 59/73/26 92/122/26 89/119/26
f 74/104/23 81/111/23 90/120/23
f 69/93/25 93/123/25 91/121/25
f 60/75/27 94/124/27 92/122/27
f 70/95/26 96/126/26 93/123/26
f 62/77/28 97/127/28 94/124/28
f 54/65/29 102/132/29 95/125/29
f 71/96/27 99/129/27 96/126/27
f 61/76/16 100/130/16 97/127/16
f 53/62/20 95/125/20 98/128/20
f 49/53/28 48/52/28 99/129/28
f 22/22/22 21/21/22 100/130/22
f 66/87/29 85/115/29 101/131/29
f 55/67/24 82/112/24 102/132/24
f 103/133/17 135/165/17 134/164/17
f 134/164/17 110/140/17 103/133/17
f 110/140/17 104/134/17 103/133/17
f 104/134/17 124/154/17 131/161/17
f 124/154/17 123/153/17 131/161/17
f 123/153/17 132/162/17 131/161/17
f 131/161/17 142/172/17 77/107/17
f 77/107/17 76/106/17 103/133/17
f 131/161/17 77/107/17 104/134/17
f 106/136/17 108/138/17 115/145/17
f 115/145/17 122/152/17 106/136/17
f 122/152/17 105/135/17 106/136/17
f 105/135/17 130/160/17 79/109/17
f 130/160/17 137/167/17 79/109/17
f 137/167/17 141/171/17 79/109/17
f 79/109/17 112/142/17 120/150/17
f 120/150/17 119/149/17 106/136/17
f 79/109/17 120/150/17 106/136/17
f 107/137/30 143/173/30 108/138/30
f 109/139/31 118/148/31 104/134/31
f 111/141/32 120/150/32 112/142/32
f 113/143/33 140/170/33 103/133/33
f 114/144/34 122/152/34 115/145/34
f 117/147/35 124/154/35 104/134/35
f 111/141/18 125/155/18 119/149/18
f 121/151/31 105/135/31 122/152/31
f 117/147/36 128/158/36 123/153/36
f 107/137/33 106/136/33 119/149/33
f 126/156/35 130/160/35 105/135/35
f 127/157/37 132/162/37 123/153/37
f 129/159/36 137/167/36 130/160/36
f 127/157/38 139/169/38 131/161/38
f 133/163/39 144/174/39 134/164/39
f 136/166/37 141/171/37 137/167/37
f 138/168/19 142/172/19 131/161/19
f 133/163/30 135/165/30 103/133/30
f 136/166/38 80/110/38 79/109/38
f 75/105/32 77/107/32 142/172/32
f 143/173/39 116/146/39 115/145/39
f 144/174/34 109/139/34 110/140/34
usemtl Material.008
f 95/125/17 144/174/17 133/163/17
f 82/112/17 144/174/17 102/132/17
f 82/112/17 118/148/17 109/139/17
f 89/119/17 118/148/17 86/116/17
f 89/119/17 128/158/17 117/147/17
f 92/122/17 127/157/17 128/158/17
f 97/127/17 127/157/17 94/124/17
f 97/127/17 138/168/17 139/169/17
f 21/21/17 138/168/17 100/130/17
f 84/114/17 75/105/17 21/21/17
f 84/114/17 140/170/17 113/143/17
f 95/125/17 140/170/17 98/128/17
f 85/115/17 143/173/17 101/131/17
f 88/118/17 116/146/17 85/115/17
f 88/118/17 121/151/17 114/144/17
f 93/123/17 121/151/17 91/121/17
f 93/123/17 129/159/17 126/156/17
f 99/129/17 129/159/17 96/126/17
f 99/129/17 80/110/17 136/166/17
f 83/113/17 80/110/17 48/52/17
f 87/117/17 78/108/17 83/113/17
f 87/117/17 125/155/17 111/141/17
f 81/111/17 125/155/17 90/120/17
f 81/111/17 143/173/17 107/137/17
f 95/125/17 102/132/17 144/174/17
f 82/112/17 109/139/17 144/174/17
f 82/112/17 86/116/17 118/148/17
f 89/119/17 117/147/17 118/148/17
f 89/119/17 92/122/17 128/158/17
f 92/122/17 94/124/17 127/157/17
f 97/127/17 139/169/17 127/157/17
f 97/127/17 100/130/17 138/168/17
f 21/21/17 75/105/17 138/168/17
f 84/114/17 113/143/17 75/105/17
f 84/114/17 98/128/17 140/170/17
f 95/125/17 133/163/17 140/170/17
f 85/115/17 116/146/17 143/173/17
f 88/118/17 114/144/17 116/146/17
f 88/118/17 91/121/17 121/151/17
f 93/123/17 126/156/17 121/151/17
f 93/123/17 96/126/17 129/159/17
f 99/129/17 136/166/17 129/159/17
f 99/129/17 48/52/17 80/110/17
f 83/113/17 78/108/17 80/110/17
f 87/117/17 111/141/17 78/108/17
f 87/117/17 90/120/17 125/155/17
f 81/111/17 107/137/17 125/155/17
f 81/111/17 101/131/17 143/173/17
