# Blender v2.92.0 OBJ File: 'Truck.blend'
# www.blender.org
mtllib truckChassis.mtl
o Cube.059
v -7.479764 0.201388 -5.903174
v -7.479764 0.833587 -8.393160
v -7.479764 0.201388 -8.393160
v -5.685573 0.201388 -8.393160
v -5.685573 0.833587 -8.393160
v -5.685573 0.201388 -5.903174
v -5.685573 0.833587 -4.303536
v -7.479764 0.833587 -4.303536
vt 0.375000 0.000000
vt 0.625000 0.250000
vt 0.375000 0.250000
vt 0.375000 0.500000
vt 0.625000 0.500000
vt 0.375000 0.750000
vt 0.625000 0.750000
vt 0.375000 1.000000
vt 0.125000 0.750000
vt 0.125000 0.500000
vt 0.875000 0.500000
vt 0.625000 0.000000
vt 0.625000 1.000000
vt 0.875000 0.750000
vn -1.0000 0.0000 0.0000
vn 0.0000 0.0000 -1.0000
vn 1.0000 0.0000 0.0000
vn 0.0000 -0.9300 0.3676
vn 0.0000 -1.0000 -0.0000
vn 0.0000 1.0000 0.0000
usemtl Material.135
s off
f 1/1/1 2/2/1 3/3/1
f 2/2/2 4/4/2 3/3/2
f 5/5/3 6/6/3 4/4/3
f 7/7/4 1/8/4 6/6/4
f 4/4/5 1/9/5 3/10/5
f 2/11/6 7/7/6 5/5/6
f 1/1/1 8/12/1 2/2/1
f 2/2/2 5/5/2 4/4/2
f 5/5/3 7/7/3 6/6/3
f 7/7/4 8/13/4 1/8/4
f 4/4/5 6/6/5 1/9/5
f 2/11/6 8/14/6 7/7/6
o Cube.067
v -7.655809 2.065894 1.137747
v -7.649615 2.574643 1.929283
v -7.649615 2.772173 0.342710
v -7.680415 1.592869 1.137600
v -7.649615 0.600382 0.344575
v -7.649579 1.592442 1.145317
v -7.682042 1.479188 1.983718
v -7.669610 0.602879 2.021980
v -7.660724 1.479151 1.980784
v -7.654600 2.064916 1.953255
v -7.624969 2.065797 1.953628
v -7.654774 2.065910 1.953200
v -7.625025 2.064898 1.953669
v -7.654602 2.064871 1.953257
v -7.669343 1.476722 1.949678
v -7.612161 2.073697 1.923848
v -6.581602 1.482632 1.948772
v -6.593932 2.075953 1.923525
v -6.582416 1.482283 1.979846
v -6.579160 0.604051 2.019088
v -6.581874 2.772367 0.342713
v -6.580570 2.574643 1.929283
v -6.580850 2.065855 1.953343
v -6.581322 0.599161 0.344020
v -7.624851 2.065821 1.146613
v -7.654823 2.064871 1.953254
vt 0.551782 0.126751
vt 0.625000 0.000000
vt 0.625000 0.250000
vt 0.000000 0.000000
vt 0.125000 0.500000
vt 0.000000 0.000000
vt 0.000000 0.000000
vt 0.000000 0.000000
vt 0.000000 0.000000
vt 0.000000 0.000000
vt 0.000000 0.000000
vt 0.125000 0.750000
vt 0.000000 0.000000
vt 0.000000 0.000000
vt 0.000000 0.000000
vt 0.000000 0.000000
vt 0.000000 0.000000
vt 0.000000 0.000000
vt 0.000000 0.000000
vt 0.000000 0.000000
vt 0.000000 0.000000
vt 0.000000 0.000000
vt 0.750043 0.500000
vt 0.875000 0.750000
vt 0.750588 0.750000
vt 0.000000 0.000000
vt 0.000000 0.000000
vt 0.560498 0.000000
vt 0.000000 0.000000
vt 0.000000 0.000000
vt 0.875000 0.500000
vn -0.9999 0.0102 0.0013
vn -0.9992 -0.0000 -0.0388
vn -0.2426 0.0123 0.9700
vn 0.1363 0.0451 0.9896
vn -0.1363 -0.0451 -0.9896
vn -0.9997 -0.0215 -0.0119
vn -0.0141 0.0528 0.9985
vn -0.0196 0.9909 0.1331
vn -0.0139 0.0536 0.9985
vn 0.9230 -0.0721 0.3779
vn 0.0002 0.0425 0.9991
vn -0.0029 0.9999 0.0112
vn 0.0026 0.0469 0.9989
vn 0.0000 0.9923 0.1237
vn 0.0000 0.0472 0.9989
vn -0.0011 -1.0000 0.0029
vn -0.0005 -0.0006 -1.0000
vn -0.9979 0.0519 0.0383
vn -0.2753 0.0117 0.9613
vn 0.0140 -0.0471 -0.9988
vn -0.9999 -0.0144 -0.0039
vn -0.0143 0.0528 0.9985
vn -0.0146 0.0536 0.9985
vn -0.0140 0.0470 0.9988
vn 0.0202 0.9907 0.1346
vn 0.0020 -0.9469 -0.3215
vn -0.0000 -0.9666 -0.2564
vn 0.9627 -0.0708 -0.2612
vn 0.0006 0.0432 0.9991
vn -0.0055 0.9971 -0.0763
vn -0.9997 0.0015 -0.0262
vn -0.9160 -0.0020 0.4012
vn 0.0007 0.0446 0.9990
vn -0.0002 0.9923 0.1235
vn -0.0001 0.0470 0.9989
vn 0.0011 -1.0000 0.0015
vn 0.0000 -0.0009 -1.0000
usemtl Material.182
s off
f 9/15/7 10/16/7 11/17/7
f 12/18/8 11/17/8 13/19/8
f 14/20/9 9/21/9 12/18/9
f 15/22/10 16/23/10 17/24/10
f 18/25/11 17/24/11 15/22/11
f 16/26/12 12/18/12 13/19/12
f 18/25/13 19/27/13 20/28/13
f 15/22/14 14/20/14 12/18/14
f 21/29/15 18/25/15 22/30/15
f 19/27/16 23/31/16 24/32/16
f 24/32/17 25/33/17 26/34/17
f 25/33/18 17/24/18 27/35/18
f 28/36/19 17/24/19 16/23/19
f 29/37/20 10/38/20 30/39/20
f 10/38/21 31/40/21 30/39/21
f 28/36/22 13/19/22 32/41/22
f 13/19/23 29/37/23 32/41/23
f 9/15/7 20/42/7 10/16/7
f 12/18/24 9/21/24 11/17/24
f 14/20/25 33/43/25 9/21/25
f 18/25/26 21/29/26 17/24/26
f 16/26/27 15/22/27 12/18/27
f 20/28/28 34/44/28 18/25/28
f 34/44/29 22/30/29 18/25/29
f 18/25/30 21/29/30 19/27/30
f 15/22/31 17/24/31 14/20/31
f 26/34/32 31/40/32 24/32/32
f 31/40/33 19/27/33 24/32/33
f 19/27/34 17/24/34 23/31/34
f 24/32/35 23/31/35 25/33/35
f 25/33/36 23/31/36 17/24/36
f 27/35/37 31/40/37 25/33/37
f 31/40/38 26/34/38 25/33/38
f 28/36/39 27/35/39 17/24/39
f 29/37/40 11/45/40 10/38/40
f 10/38/41 20/42/41 31/40/41
f 28/36/42 16/23/42 13/19/42
f 13/19/43 11/45/43 29/37/43
l 21 31
o Cube.069
v -7.669835 -0.026337 1.956900
v -7.669835 0.614612 -1.759598
v -7.669835 -0.026337 -1.759598
v -5.493180 -0.026337 -1.759598
v -5.493180 0.614612 -1.759598
v -5.493180 -0.026337 1.956900
v -5.493180 0.614612 2.021284
v -7.669835 0.614612 2.021284
vt 0.375000 0.000000
vt 0.625000 0.250000
vt 0.375000 0.250000
vt 0.375000 0.500000
vt 0.625000 0.500000
vt 0.375000 0.750000
vt 0.625000 0.750000
vt 0.375000 1.000000
vt 0.125000 0.750000
vt 0.125000 0.500000
vt 0.875000 0.500000
vt 0.625000 0.000000
vt 0.625000 1.000000
vt 0.875000 0.750000
vn -1.0000 -0.0000 0.0000
vn 0.0000 0.0000 -1.0000
vn 1.0000 0.0000 0.0000
vn 0.0000 -0.0999 0.9950
vn 0.0000 -1.0000 -0.0000
vn 0.0000 1.0000 0.0000
usemtl Material.184
s off
f 35/46/44 36/47/44 37/48/44
f 36/47/45 38/49/45 37/48/45
f 39/50/46 40/51/46 38/49/46
f 41/52/47 35/53/47 40/51/47
f 38/49/48 35/54/48 37/55/48
f 36/56/49 41/52/49 39/50/49
f 35/46/44 42/57/44 36/47/44
f 36/47/45 39/50/45 38/49/45
f 39/50/46 41/52/46 40/51/46
f 41/52/47 42/58/47 35/53/47
f 38/49/48 40/51/48 35/54/48
f 36/56/49 42/59/49 41/52/49
o Cube.070
v -5.507206 2.065894 1.137747
v -5.513401 2.772174 0.342710
v -5.513401 2.574643 1.929283
v -5.482600 1.592869 1.137600
v -5.513401 0.600382 0.344575
v -5.513437 1.592442 1.145317
v -5.480974 1.479188 1.983718
v -5.502292 1.479152 1.980784
v -5.493405 0.602879 2.021980
v -5.508416 2.064916 1.953255
v -5.508242 2.065910 1.953200
v -5.538046 2.065797 1.953628
v -5.537991 2.064898 1.953669
v -5.508414 2.064871 1.953257
v -5.550854 2.073697 1.923848
v -5.493672 1.476722 1.949678
v -6.569083 2.075954 1.923525
v -6.581413 1.482632 1.948772
v -6.580600 1.482283 1.979846
v -6.583856 0.604051 2.019088
v -6.581141 2.772368 0.342713
v -6.582446 2.574643 1.929283
v -6.582166 2.065855 1.953343
v -6.581693 0.599161 0.344020
v -5.538164 2.065821 1.146613
v -5.508192 2.064871 1.953254
vt 0.551782 0.126751
vt 0.625000 0.250000
vt 0.625000 0.000000
vt 0.000000 0.000000
vt 0.125000 0.500000
vt 0.000000 0.000000
vt 0.000000 0.000000
vt 0.000000 0.000000
vt 0.000000 0.000000
vt 0.000000 0.000000
vt 0.000000 0.000000
vt 0.125000 0.750000
vt 0.000000 0.000000
vt 0.000000 0.000000
vt 0.000000 0.000000
vt 0.000000 0.000000
vt 0.000000 0.000000
vt 0.000000 0.000000
vt 0.000000 0.000000
vt 0.000000 0.000000
vt 0.000000 0.000000
vt 0.000000 0.000000
vt 0.750043 0.500000
vt 0.750588 0.750000
vt 0.875000 0.750000
vt 0.000000 0.000000
vt 0.000000 0.000000
vt 0.560498 0.000000
vt 0.000000 0.000000
vt 0.000000 0.000000
vt 0.875000 0.500000
vn 0.9999 0.0102 0.0013
vn 0.9992 -0.0000 -0.0388
vn 0.2426 0.0123 0.9701
vn -0.1363 0.0451 0.9896
vn 0.1363 -0.0451 -0.9896
vn 0.9997 -0.0215 -0.0119
vn 0.0141 0.0528 0.9985
vn 0.0196 0.9909 0.1331
vn 0.0139 0.0535 0.9985
vn -0.9230 -0.0721 0.3779
vn -0.0002 0.0425 0.9991
vn 0.0029 0.9999 0.0112
vn -0.0026 0.0469 0.9989
vn 0.0000 0.9923 0.1237
vn 0.0000 0.0472 0.9989
vn 0.0011 -1.0000 0.0029
vn 0.0005 -0.0006 -1.0000
vn 0.9979 0.0519 0.0383
vn 0.2753 0.0117 0.9613
vn -0.0139 -0.0471 -0.9988
vn 0.9999 -0.0144 -0.0038
vn 0.0143 0.0528 0.9985
vn 0.0146 0.0538 0.9984
vn 0.0140 0.0469 0.9988
vn -0.0202 0.9907 0.1346
vn -0.0020 -0.9469 -0.3216
vn 0.0000 -0.9666 -0.2564
vn -0.9627 -0.0708 -0.2613
vn -0.0006 0.0432 0.9991
vn 0.0055 0.9971 -0.0764
vn 0.9997 0.0015 -0.0261
vn 0.9160 -0.0020 0.4012
vn -0.0007 0.0446 0.9990
vn 0.0002 0.9923 0.1235
vn 0.0001 0.0470 0.9989
vn -0.0011 -1.0000 0.0015
vn -0.0000 -0.0009 -1.0000
usemtl Material.186
s off
f 43/60/50 44/61/50 45/62/50
f 46/63/51 47/64/51 44/61/51
f 48/65/52 46/63/52 43/66/52
f 49/67/53 50/68/53 51/69/53
f 52/70/54 49/67/54 50/68/54
f 51/71/55 47/64/55 46/63/55
f 52/70/56 53/72/56 54/73/56
f 49/67/57 46/63/57 48/65/57
f 55/74/58 56/75/58 52/70/58
f 54/73/59 57/76/59 58/77/59
f 57/76/60 59/78/60 60/79/60
f 60/79/61 61/80/61 50/68/61
f 62/81/62 51/69/62 50/68/62
f 63/82/63 64/83/63 45/84/63
f 45/84/64 64/83/64 65/85/64
f 62/81/65 66/86/65 47/64/65
f 47/64/66 66/86/66 63/82/66
f 43/60/50 45/62/50 53/87/50
f 46/63/67 44/61/67 43/66/67
f 48/65/68 43/66/68 67/88/68
f 52/70/69 50/68/69 55/74/69
f 51/71/70 46/63/70 49/67/70
f 53/72/71 52/70/71 68/89/71
f 68/89/72 52/70/72 56/75/72
f 52/70/73 54/73/73 55/74/73
f 49/67/74 48/65/74 50/68/74
f 59/78/75 57/76/75 65/85/75
f 65/85/76 57/76/76 54/73/76
f 54/73/77 58/77/77 50/68/77
f 57/76/78 60/79/78 58/77/78
f 60/79/79 50/68/79 58/77/79
f 61/80/80 60/79/80 65/85/80
f 65/85/81 60/79/81 59/78/81
f 62/81/82 50/68/82 61/80/82
f 63/82/83 45/84/83 44/90/83
f 45/84/84 65/85/84 53/87/84
f 62/81/85 47/64/85 51/69/85
f 47/64/86 63/82/86 44/90/86
l 55 65
